<svg version="1.1" id="Layer_1" xmlns="http://www.w3.org/2000/svg" xmlns:xlink="http://www.w3.org/1999/xlink" x="0px" y="0px"
	 width="100%" viewBox="0 0 455 549" enable-background="new 0 0 455 549" xml:space="preserve">
<path fill="#000000" opacity="1.000000" stroke="none" 
	d="
M300.000000,550.000000 
	C200.000031,550.000000 100.500046,550.000000 1.000053,550.000000 
	C1.000036,367.000061 1.000036,184.000137 1.000018,1.000152 
	C152.666565,1.000101 304.333130,1.000101 455.999756,1.000051 
	C455.999847,183.999863 455.999847,366.999725 455.999939,549.999756 
	C404.166656,550.000000 352.333344,550.000000 300.000000,550.000000 
M351.984192,208.993317 
	C351.984192,208.993317 352.072021,209.023056 351.915497,208.492630 
	C351.618774,208.289337 351.322052,208.086044 350.687927,207.230270 
	C346.919922,205.920273 347.379913,209.640915 346.322784,211.176529 
	C338.692230,222.260773 331.220337,233.455811 323.858582,244.720581 
	C323.250275,245.651321 323.675903,247.379639 323.878662,248.697769 
	C324.843292,254.969269 326.438171,261.200287 326.749695,267.498108 
	C327.003754,272.633942 325.761322,277.843811 325.046112,283.751678 
	C325.085205,284.491974 325.124298,285.232269 324.995453,286.382904 
	C324.995453,286.382904 324.929016,286.821259 324.251892,287.197571 
	C322.478058,292.781921 320.704224,298.366302 318.992859,304.003204 
	C318.992859,304.003204 318.941437,303.941101 318.316803,304.270691 
	C317.159973,306.828094 316.003143,309.385498 314.309174,312.201050 
	C314.175049,312.772217 314.040924,313.343353 313.209473,313.998047 
	C312.128357,315.569214 311.047272,317.140411 309.879303,318.776947 
	C309.879303,318.776947 309.938873,318.867889 309.287109,319.119507 
	C308.217377,320.539459 307.219727,322.021088 306.066223,323.369354 
	C298.616119,332.077209 289.619995,338.924774 279.338654,345.154816 
	C278.517487,345.754791 277.696320,346.354736 276.430054,346.998566 
	C276.430054,346.998566 276.003784,347.133942 275.457397,347.059631 
	C275.270844,347.361115 275.084290,347.662598 274.966339,347.942322 
	C274.966339,347.942322 274.906891,347.901764 274.186310,347.982910 
	C272.422302,348.977020 270.658295,349.971130 268.432739,351.020599 
	C268.432739,351.020599 267.992279,351.169281 267.498566,351.030457 
	C267.328369,351.046417 267.158142,351.062347 266.379425,351.012390 
	C265.916748,351.391968 265.454041,351.771515 264.282837,351.983704 
	C263.177399,352.357758 262.071930,352.731781 260.217255,352.947174 
	C257.772217,353.953735 255.327148,354.960297 252.417145,356.015747 
	C252.417145,356.015747 251.980270,356.182220 251.079269,356.055176 
	C244.069183,356.432129 237.059082,356.809052 229.352402,356.839813 
	C221.245438,355.521271 213.138458,354.202728 204.618118,352.343079 
	C188.071655,344.839935 172.852936,335.572662 162.614532,319.582855 
	C155.187119,331.019531 148.143066,341.612976 141.472641,352.436737 
	C140.574661,353.893829 140.968048,356.802582 141.816544,358.518372 
	C142.941437,360.793091 144.831604,362.904114 146.861984,364.481842 
	C161.528961,375.878815 176.835358,386.226654 194.962814,391.428314 
	C208.690033,395.367340 222.605621,398.514954 237.007156,397.714569 
	C244.062958,397.322449 251.067444,396.035339 258.100220,395.195648 
	C277.319489,392.900909 294.174835,384.766632 310.728027,373.998810 
	C314.841553,370.710175 318.955109,367.421509 323.691406,363.837830 
	C325.817017,361.600525 327.942596,359.363220 330.772125,357.025970 
	C332.128387,355.874390 333.727936,354.911224 334.793884,353.534821 
	C337.645752,349.852570 340.268738,345.993011 343.716522,342.053497 
	C345.846283,338.737457 347.976044,335.421448 350.083954,332.053314 
	C350.083954,332.053314 350.134857,332.081940 350.765686,331.729858 
	C352.138977,328.362671 353.222137,324.838776 354.939972,321.657654 
	C360.086029,312.128052 363.346069,301.991302 365.009491,291.354584 
	C365.909973,285.596680 366.273376,279.754791 367.036591,273.077667 
	C366.578613,258.057831 365.436676,243.118042 360.368164,228.819885 
	C358.201508,222.707825 355.478088,216.793121 353.018555,210.417770 
	C353.018555,210.417770 352.889404,210.069839 352.973785,209.485916 
	C352.653687,209.292389 352.333557,209.098862 351.984192,208.993317 
M319.424438,182.015350 
	C319.234100,182.339020 319.043793,182.662704 318.931213,182.930878 
	C318.931213,182.930878 318.872864,182.855225 318.302734,183.122849 
	C318.144012,183.722046 317.985321,184.321228 317.375031,185.051971 
	C317.090515,185.236465 316.932312,185.497528 316.255890,186.124588 
	C314.487366,188.567886 312.690582,190.991379 310.958282,193.460114 
	C309.246674,195.899277 307.600189,198.384109 305.305389,201.192490 
	C299.438568,207.543884 299.295410,214.564056 302.977417,222.839111 
	C303.648651,225.290192 304.319916,227.741287 304.994781,230.614319 
	C304.994781,230.614319 305.159607,231.002747 305.036591,231.766663 
	C305.334534,232.891312 305.632507,234.015961 305.917877,235.055557 
	C305.917877,235.055557 305.833527,235.072311 306.008942,235.822113 
	C306.211731,236.532074 306.414490,237.242035 306.617249,237.951981 
	C307.790253,236.987274 308.963257,236.022583 310.035309,234.999298 
	C310.035309,234.999298 309.977020,235.100464 310.545288,234.947891 
	C310.749542,234.623642 310.953827,234.299393 311.019562,234.021011 
	C311.019562,234.021011 311.066589,234.159149 311.671783,233.903214 
	C311.811432,233.279419 311.951080,232.655624 312.739868,231.743561 
	C315.581085,226.987701 317.694427,221.731476 322.747772,217.755737 
	C326.110168,212.829346 329.472565,207.902969 333.119934,202.398926 
	C334.026031,201.265106 334.932129,200.131271 336.140320,198.362640 
	C339.146942,194.269043 342.153595,190.175430 345.734467,185.752655 
	C348.128540,179.831467 349.800018,186.919876 351.988159,186.026855 
	C351.988159,186.026855 351.914398,186.088089 352.218719,186.704544 
	C354.109222,188.258163 355.889130,189.979172 357.919708,191.320786 
	C360.187195,192.818909 361.778320,191.841980 361.958160,189.258896 
	C362.358307,183.510773 362.544250,177.747742 362.965302,171.065094 
	C363.308105,162.377457 363.584717,153.686432 364.029327,145.004013 
	C364.185822,141.948807 362.823425,140.317001 360.027130,141.097107 
	C357.206726,141.883926 354.642517,143.589020 351.224579,144.982224 
	C350.119354,145.286545 349.014099,145.590866 347.951874,145.949615 
	C347.951874,145.949615 347.988708,145.890823 347.354187,145.950653 
	C346.873199,146.277679 346.392181,146.604706 345.974335,146.962524 
	C345.974335,146.962524 345.998352,146.896515 345.357544,146.982040 
	C344.863495,147.306427 344.369415,147.630814 343.442535,148.001556 
	C343.442535,148.001556 343.025452,148.126144 342.280670,147.990952 
	C338.195770,149.710922 334.110840,151.430878 329.426758,153.141129 
	C328.945770,153.486572 328.464783,153.832001 327.460724,154.127457 
	C327.264008,154.406860 327.067261,154.686249 326.426849,155.009964 
	C326.426849,155.009964 326.006134,155.157623 325.259888,155.277542 
	C322.163116,156.299118 319.066315,157.320709 315.969543,158.342285 
	C315.740479,158.838303 315.511383,159.334320 315.282318,159.830338 
	C319.568878,162.882782 323.855438,165.935242 328.007843,169.623810 
	C327.983948,170.055939 327.960052,170.488083 327.351898,171.144958 
	C327.203125,171.738037 327.054321,172.331100 326.442841,173.074631 
	C326.151215,173.260880 325.975311,173.524384 325.394745,174.016418 
	C325.218201,174.318237 325.041626,174.620056 324.296295,175.197906 
	C323.827362,176.090363 323.358398,176.982819 322.394012,178.019699 
	C322.215668,178.302246 322.037323,178.584793 321.399811,179.045898 
	C321.104065,179.239563 320.937042,179.512131 320.324890,180.148178 
	C320.163422,180.764282 320.001953,181.380386 319.980530,182.001923 
	C319.980530,182.001923 319.985443,181.861847 319.424438,182.015350 
M185.004974,261.002045 
	C185.038315,271.982666 185.071655,282.963287 184.977859,294.798157 
	C185.365204,299.215942 186.027420,303.630890 186.072449,308.052155 
	C186.132935,313.991547 189.788620,317.057922 194.511948,319.034821 
	C198.945435,320.890411 203.301682,320.476807 207.559906,317.585938 
	C214.541245,312.846344 214.031082,305.883484 213.967178,297.975739 
	C214.036606,286.686188 214.106018,275.396667 214.820755,264.157135 
	C216.181580,265.449799 217.542404,266.742462 218.991974,268.755157 
	C224.299179,276.569885 229.606384,284.384583 234.957184,292.886841 
	C236.292679,294.282959 237.628174,295.679108 239.042419,297.719513 
	C239.574829,298.311768 240.107239,298.903992 240.729919,299.891083 
	C240.888138,300.259552 241.046356,300.627991 241.090927,301.534821 
	C241.705978,302.410431 242.321030,303.286041 242.985504,304.831787 
	C243.606445,305.989136 244.227386,307.146515 245.133408,308.785309 
	C245.741989,309.207062 246.350571,309.628815 246.991318,309.995697 
	C246.991318,309.995697 246.944504,310.040222 247.048172,310.747345 
	C248.766907,312.866638 250.188995,315.352325 252.263626,317.032104 
	C257.202515,321.031097 263.253265,320.091125 268.973022,319.789215 
	C276.630432,319.385010 280.328644,315.873627 282.760956,307.646759 
	C282.787476,295.126831 282.813995,282.606873 282.947632,269.159546 
	C282.913177,265.440033 282.878723,261.720490 282.952881,257.069244 
	C282.954071,248.752884 283.302246,240.415466 282.799500,232.129684 
	C282.572662,228.390991 281.334503,224.322495 279.340790,221.172150 
	C276.205109,216.217300 270.608063,214.918167 265.265747,216.138870 
	C260.613678,217.201828 256.277740,219.780655 255.969040,225.689804 
	C255.771835,229.464676 255.488007,233.235001 255.129776,237.922211 
	C255.166901,241.618820 255.204041,245.315430 255.124542,249.939468 
	C255.153748,255.297684 255.182938,260.655884 255.102676,266.701782 
	C254.729095,267.773895 254.355515,268.845978 253.321365,269.721100 
	C248.889679,263.476929 244.458008,257.232788 239.949371,250.282883 
	C237.284348,246.188736 234.619324,242.094589 232.006210,237.470840 
	C231.756638,237.229736 231.507050,236.988632 230.829330,236.201660 
	C229.873749,234.977753 228.857788,233.795654 227.974838,232.521423 
	C225.981873,229.645279 224.054672,226.723557 221.956833,223.157913 
	C218.718933,219.020279 215.775421,214.374878 209.646454,214.427521 
	C206.023056,214.458633 202.405243,214.903229 198.780411,215.051010 
	C191.568436,215.345047 186.090652,220.908249 186.082977,228.039917 
	C186.077606,233.021866 186.059296,238.003891 186.080978,242.985733 
	C186.089706,244.991791 186.189850,246.997467 186.147217,249.896317 
	C186.086044,252.591629 186.024872,255.286926 185.425415,258.294098 
	C185.321884,258.888672 185.218338,259.483215 185.004974,261.002045 
M161.698807,217.871292 
	C171.028305,207.898575 180.602097,198.220642 193.710587,191.914078 
	C199.821915,189.307892 205.933258,186.701706 212.908752,184.021072 
	C214.562820,183.960846 216.269516,184.144577 217.862488,183.801056 
	C228.629791,181.479156 239.346588,180.925247 250.144424,183.757217 
	C255.357574,185.124466 260.700806,185.995773 266.459869,187.607590 
	C272.869415,191.276703 279.365387,194.805710 285.648102,198.680466 
	C288.345459,200.344025 289.753601,199.648087 291.287323,197.298050 
	C296.632904,189.107147 302.049225,180.961899 307.493347,172.835938 
	C312.090576,165.974075 312.293915,165.124603 305.244904,161.044510 
	C286.974915,150.469467 267.708801,142.661026 246.204987,141.895874 
	C239.434372,141.654953 232.619827,140.708450 225.910751,141.215164 
	C218.960052,141.740143 212.133148,143.758820 205.215622,144.903809 
	C195.517105,146.509155 186.261993,149.342377 177.653839,154.146957 
	C173.091415,156.693420 168.541809,159.262848 163.318619,161.962448 
	C162.851501,162.640762 162.384369,163.319077 161.976349,163.944168 
	C161.976349,163.944168 161.921417,163.886658 161.319672,164.247925 
	C150.282806,170.738541 141.608841,179.715866 133.654861,189.644226 
	C123.094513,202.825912 115.402016,217.254608 110.481560,233.499359 
	C107.062965,244.785767 104.953606,256.187225 105.288956,267.741974 
	C105.638290,279.779144 107.417259,291.827362 109.361443,303.741821 
	C110.230133,309.065338 113.030014,314.073730 115.293877,319.857758 
	C118.130066,326.720184 120.966263,333.582581 124.306938,341.665649 
	C126.422470,339.254272 127.519806,338.310181 128.240097,337.135010 
	C135.385254,325.477051 142.531403,313.818268 149.481644,302.044220 
	C150.276001,300.698547 150.260406,298.575317 149.954865,296.936676 
	C149.082291,292.256866 147.477432,287.692322 146.857758,282.990540 
	C144.887650,268.042633 145.304962,253.188232 151.050018,239.016281 
	C153.942596,231.880829 157.704086,225.097610 161.698807,217.871292 
z"/>
<path fill="#203340" opacity="1.000000" stroke="none" 
	d="
M310.056671,374.214813 
	C294.174835,384.766632 277.319489,392.900909 258.100220,395.195648 
	C251.067444,396.035339 244.062958,397.322449 237.007156,397.714569 
	C222.605621,398.514954 208.690033,395.367340 194.962814,391.428314 
	C176.835358,386.226654 161.528961,375.878815 146.861984,364.481842 
	C144.831604,362.904114 142.941437,360.793091 141.816544,358.518372 
	C140.968048,356.802582 140.574661,353.893829 141.472641,352.436737 
	C148.143066,341.612976 155.187119,331.019531 162.614532,319.582855 
	C172.852936,335.572662 188.071655,344.839935 204.842468,352.962036 
	C206.715775,355.208862 208.231262,357.004700 210.034698,358.438202 
	C224.908630,370.260742 241.991272,376.511414 261.145935,378.592163 
	C267.878296,378.727997 274.258972,378.618927 281.109131,378.527588 
	C289.533844,377.074738 297.481201,375.558441 305.451508,374.174377 
	C306.939331,373.915985 308.519257,374.187714 310.056671,374.214813 
z"/>
<path fill="#334D5F" opacity="1.000000" stroke="none" 
	d="
M212.044586,184.095520 
	C205.933258,186.701706 199.821915,189.307892 193.126831,191.665100 
	C189.479401,189.928284 186.661285,189.875259 183.119858,190.808975 
	C166.968765,195.067307 157.589081,205.927719 151.845230,221.203079 
	C136.440231,233.375946 126.274529,248.709412 120.534622,267.083252 
	C116.144989,281.134735 114.197548,295.412933 115.809174,310.148132 
	C116.132812,313.107239 115.269493,316.196106 114.953445,319.225159 
	C113.030014,314.073730 110.230133,309.065338 109.361443,303.741821 
	C107.417259,291.827362 105.638290,279.779144 105.288956,267.741974 
	C104.953606,256.187225 107.062965,244.785767 110.481560,233.499359 
	C115.402016,217.254608 123.094513,202.825912 133.654861,189.644226 
	C141.608841,179.715866 150.282806,170.738541 161.720032,164.340378 
	C162.497696,164.683884 163.041656,165.242905 163.228409,165.141846 
	C173.181091,159.755554 184.327377,160.680801 195.076477,159.416153 
	C196.738770,160.711792 198.315933,161.677261 199.893082,162.642746 
	C200.601715,161.465439 201.310349,160.288132 202.388870,159.101517 
	C203.498489,159.105087 204.238205,159.117950 205.006958,159.489990 
	C208.414474,165.434845 206.238724,171.754242 207.382355,177.635132 
	C213.694168,177.221970 213.690903,177.221085 212.094437,183.106354 
	C212.009979,183.417664 212.058167,183.764969 212.044586,184.095520 
z"/>
<path fill="#223543" opacity="1.000000" stroke="none" 
	d="
M204.977936,159.130814 
	C204.238205,159.117950 203.498489,159.105087 201.949554,159.072067 
	C199.090668,159.063278 197.041000,159.074631 194.991333,159.085999 
	C184.327377,160.680801 173.181091,159.755554 163.228409,165.141846 
	C163.041656,165.242905 162.497696,164.683884 162.020905,164.159744 
	C161.921417,163.886658 161.976349,163.944168 162.228607,163.839218 
	C162.982712,163.096817 163.484573,162.459351 163.986420,161.821899 
	C168.541809,159.262848 173.091415,156.693420 177.653839,154.146957 
	C186.261993,149.342377 195.517105,146.509155 205.215622,144.903809 
	C212.133148,143.758820 218.960052,141.740143 225.910751,141.215164 
	C232.619827,140.708450 239.434372,141.654953 246.204987,141.895874 
	C267.708801,142.661026 286.974915,150.469467 305.244904,161.044510 
	C312.293915,165.124603 312.090576,165.974075 307.493347,172.835938 
	C302.049225,180.961899 296.632904,189.107147 291.287323,197.298050 
	C289.753601,199.648087 288.345459,200.344025 285.648102,198.680466 
	C279.365387,194.805710 272.869415,191.276703 266.163727,187.004013 
	C261.158051,178.596725 252.778168,175.412262 245.516678,171.231720 
	C233.099899,164.083160 219.296478,160.476700 204.977936,159.130814 
z"/>
<path fill="#233645" opacity="1.000000" stroke="none" 
	d="
M115.123657,319.541443 
	C115.269493,316.196106 116.132812,313.107239 115.809174,310.148132 
	C114.197548,295.412933 116.144989,281.134735 120.534622,267.083252 
	C126.274529,248.709412 136.440231,233.375946 152.186432,221.114807 
	C155.489899,219.874146 158.281281,219.014618 161.072662,218.155106 
	C157.704086,225.097610 153.942596,231.880829 151.050018,239.016281 
	C145.304962,253.188232 144.887650,268.042633 146.857758,282.990540 
	C147.477432,287.692322 149.082291,292.256866 149.954865,296.936676 
	C150.260406,298.575317 150.276001,300.698547 149.481644,302.044220 
	C142.531403,313.818268 135.385254,325.477051 128.240097,337.135010 
	C127.519806,338.310181 126.422470,339.254272 124.306938,341.665649 
	C120.966263,333.582581 118.130066,326.720184 115.123657,319.541443 
z"/>
<path fill="#BD9D4D" opacity="1.000000" stroke="none" 
	d="
M324.929016,286.821259 
	C324.929016,286.821259 324.995453,286.382904 325.242645,285.957153 
	C325.387360,284.694550 325.284882,283.857727 325.182434,283.020874 
	C325.761322,277.843811 327.003754,272.633942 326.749695,267.498108 
	C326.438171,261.200287 324.843292,254.969269 323.878662,248.697769 
	C323.675903,247.379639 323.250275,245.651321 323.858582,244.720581 
	C331.220337,233.455811 338.692230,222.260773 346.322784,211.176529 
	C347.379913,209.640915 346.919922,205.920273 351.025757,207.750458 
	C351.599762,208.521439 351.835876,208.772247 352.072021,209.023056 
	C352.072021,209.023056 351.984192,208.993317 352.082855,209.186707 
	C352.417480,209.610001 352.653442,209.839920 352.889404,210.069839 
	C352.889404,210.069839 353.018555,210.417770 352.970490,211.045135 
	C355.793427,224.667847 355.284332,237.843140 354.856628,251.370056 
	C352.498291,266.390350 347.527954,280.063721 339.626526,292.574554 
	C333.564484,302.172852 326.753998,311.171753 315.896606,315.916718 
	C315.133606,315.058777 314.520203,314.486633 313.906799,313.914520 
	C314.040924,313.343353 314.175049,312.772217 314.927734,311.998413 
	C316.677979,309.177521 317.809723,306.559326 318.941437,303.941101 
	C318.941437,303.941101 318.992859,304.003204 319.291565,303.880829 
	C323.922699,298.917389 325.766144,293.291809 324.929016,286.821259 
z"/>
<path fill="#DCC37C" opacity="1.000000" stroke="none" 
	d="
M316.046234,316.202545 
	C326.753998,311.171753 333.564484,302.172852 339.626526,292.574554 
	C347.527954,280.063721 352.498291,266.390350 355.154297,251.468170 
	C356.453552,251.874725 357.295624,252.547638 357.772827,252.928970 
	C359.148407,251.545212 360.291504,250.395340 361.434601,249.245453 
	C362.230621,250.155243 363.618011,251.000961 363.724670,251.985428 
	C364.322601,257.504486 364.491241,263.069672 365.074066,268.590881 
	C365.267212,270.420624 366.254730,272.166565 366.879059,273.950806 
	C366.273376,279.754791 365.909973,285.596680 365.009491,291.354584 
	C363.346069,301.991302 360.086029,312.128052 354.939972,321.657654 
	C353.222137,324.838776 352.138977,328.362671 350.411438,331.542114 
	C348.914185,329.919678 347.771118,328.484924 346.628082,327.050201 
	C344.829041,326.155304 343.854675,324.785828 342.790619,323.490021 
	C342.714355,323.397156 341.592163,323.915039 341.612976,324.027954 
	C341.915009,325.667236 342.422974,327.270966 342.683990,328.914612 
	C342.859161,330.017395 342.722321,331.169678 342.725098,332.299835 
	C341.476532,331.654541 339.516327,331.307312 339.100067,330.313416 
	C337.076324,325.481598 333.843628,322.792114 328.474060,322.927612 
	C327.834045,322.943787 326.961853,322.881897 326.577515,322.486542 
	C323.064575,318.872925 320.893829,321.547668 318.474030,323.990112 
	C309.259521,333.290894 300.276886,343.014435 286.064209,343.652130 
	C290.278076,341.294495 294.899323,339.917786 298.321075,337.089752 
	C304.009125,332.388702 309.967133,327.406891 309.938873,318.867889 
	C309.938873,318.867889 309.879303,318.776947 310.282410,318.779602 
	C312.472443,317.922363 314.259338,317.062439 316.046234,316.202545 
z"/>
<path fill="#334E61" opacity="1.000000" stroke="none" 
	d="
M185.963715,257.982239 
	C186.024872,255.286926 186.086044,252.591629 186.521301,249.363586 
	C190.781250,246.157455 196.281021,245.148560 196.832260,239.021210 
	C196.892532,238.351212 197.727127,237.587448 198.391113,237.160187 
	C206.028976,232.245483 211.957779,224.276657 222.100723,223.820374 
	C224.054672,226.723557 225.981873,229.645279 227.974838,232.521423 
	C228.857788,233.795654 229.873749,234.977753 230.970871,236.546249 
	C231.112411,236.890839 230.968216,237.033051 230.595505,237.001038 
	C225.192886,234.129959 221.085999,236.033463 217.249435,239.459381 
	C216.634033,240.008926 215.861420,240.377945 215.200806,240.881973 
	C202.536301,250.544708 197.038147,263.368195 199.251007,279.078339 
	C199.858856,283.393829 202.181442,287.538391 204.126099,291.563873 
	C205.037552,293.450623 206.920349,294.868103 208.362930,296.498230 
	C209.443909,294.985352 210.523773,293.471680 211.606384,291.959961 
	C212.086899,291.288971 212.572952,290.622009 213.075089,290.389099 
	C213.348358,293.515594 213.603058,296.206207 213.857742,298.896790 
	C214.031082,305.883484 214.541245,312.846344 207.559906,317.585938 
	C203.301682,320.476807 198.945435,320.890411 194.511948,319.034821 
	C189.788620,317.057922 186.132935,313.991547 186.072449,308.052155 
	C186.027420,303.630890 185.365204,299.215942 185.307205,294.139404 
	C185.804169,292.318848 185.971771,291.157104 186.343079,289.637878 
	C186.699936,281.566437 186.955536,273.852417 186.950974,266.138550 
	C186.949371,263.419586 186.311218,260.700989 185.963715,257.982239 
z"/>
<path fill="#365164" opacity="1.000000" stroke="none" 
	d="
M255.241180,249.012054 
	C255.204041,245.315430 255.166901,241.618820 255.503662,237.396530 
	C257.124786,236.977020 258.475067,236.810669 259.601257,237.236740 
	C264.361847,239.037766 269.055695,241.015106 274.659760,243.287109 
	C274.903900,244.658203 275.407318,247.485703 275.910767,250.313202 
	C276.378967,250.272598 276.847168,250.232010 277.315399,250.191406 
	C277.919250,246.102020 278.523102,242.012619 279.126953,237.923233 
	C279.751068,237.986588 280.375214,238.049957 280.999359,238.113312 
	C280.999359,243.005829 280.839691,247.906342 281.084045,252.786621 
	C281.172302,254.549698 282.229309,256.264252 282.844269,258.000977 
	C282.878723,261.720490 282.913177,265.440033 282.693665,269.973297 
	C282.284485,276.863831 282.129272,282.940643 281.878540,289.124420 
	C281.659302,289.520752 281.723206,289.771454 281.982178,290.413208 
	C281.986603,292.562286 281.983643,294.281677 281.623474,295.979187 
	C279.594788,295.466644 277.923309,294.975983 277.044250,294.717926 
	C274.891479,297.107208 273.496429,299.367462 271.492157,300.734650 
	C267.056000,303.760742 261.891876,305.843994 257.857849,309.287781 
	C255.520111,311.283447 253.808548,311.498444 251.319016,310.872131 
	C249.882034,310.510651 248.404037,310.312103 246.944504,310.040222 
	C246.944504,310.040222 246.991318,309.995697 246.967850,309.716492 
	C246.245697,309.059509 245.547012,308.681671 244.848328,308.303864 
	C244.227386,307.146515 243.606445,305.989136 243.022522,304.167450 
	C243.373291,302.670380 243.687057,301.837616 244.249481,301.002258 
	C244.498138,300.999603 244.995483,300.995117 245.238129,301.229309 
	C247.006561,303.857727 249.022949,304.497406 251.329605,302.722382 
	C255.459930,299.544006 259.793671,296.540863 263.490295,292.903412 
	C280.233215,276.428558 269.710907,260.244476 257.614868,249.572998 
	C257.077148,249.098618 256.043701,249.186218 255.241180,249.012054 
z"/>
<path fill="#466277" opacity="1.000000" stroke="none" 
	d="
M240.026321,250.988617 
	C244.458008,257.232788 248.889679,263.476929 253.628876,270.227020 
	C253.183655,281.559326 246.819382,287.421753 236.858932,290.211884 
	C236.085602,290.428528 235.556305,291.516388 234.913574,292.199310 
	C229.606384,284.384583 224.299179,276.569885 219.218842,268.225342 
	C219.791382,266.999298 220.616272,266.071289 220.408920,265.642548 
	C218.237106,261.152008 220.189621,259.574799 224.484116,258.450195 
	C227.581863,257.639008 230.299652,255.434586 233.247299,253.973404 
	C235.457153,252.877975 237.763138,251.976456 240.026321,250.988617 
z"/>
<path fill="#30495B" opacity="1.000000" stroke="none" 
	d="
M205.006958,159.489990 
	C219.296478,160.476700 233.099899,164.083160 245.516678,171.231720 
	C252.778168,175.412262 261.158051,178.596725 265.926361,186.746033 
	C260.700806,185.995773 255.357574,185.124466 250.144424,183.757217 
	C239.346588,180.925247 228.629791,181.479156 217.862488,183.801056 
	C216.269516,184.144577 214.562820,183.960846 212.476685,184.058289 
	C212.058167,183.764969 212.009979,183.417664 212.094437,183.106354 
	C213.690903,177.221085 213.694168,177.221970 207.382355,177.635132 
	C206.238724,171.754242 208.414474,165.434845 205.006958,159.489990 
z"/>
<path fill="#C3A251" opacity="1.000000" stroke="none" 
	d="
M327.983795,154.177444 
	C328.464783,153.832001 328.945770,153.486572 330.028442,153.354187 
	C338.079987,156.243011 339.166962,155.765869 343.025452,148.126144 
	C343.025452,148.126144 343.442535,148.001556 343.959808,147.929443 
	C344.984192,147.537064 345.491272,147.216797 345.998352,146.896515 
	C345.998352,146.896515 345.974335,146.962524 346.239990,146.904480 
	C346.999969,146.527908 347.494354,146.209366 347.988708,145.890823 
	C347.988708,145.890823 347.951874,145.949615 348.296265,145.950592 
	C349.749115,145.598312 350.857605,145.245071 351.966064,144.891815 
	C354.642517,143.589020 357.206726,141.883926 360.027130,141.097107 
	C362.823425,140.317001 364.185822,141.948807 364.029327,145.004013 
	C363.584717,153.686432 363.308105,162.377457 362.571045,171.690247 
	C361.548645,174.441040 360.796539,176.539215 360.318024,178.698029 
	C359.307129,183.258545 356.559235,185.721024 351.914398,186.088089 
	C351.914398,186.088089 351.988159,186.026855 351.983215,185.684982 
	C352.792633,183.641739 353.607056,181.940369 354.498932,180.077179 
	C352.624420,177.213638 350.762268,174.121262 348.657623,171.203827 
	C343.788116,164.453781 336.437378,161.473801 329.101715,158.418243 
	C327.836639,157.891281 327.026428,156.272217 326.006134,155.157623 
	C326.006134,155.157623 326.426849,155.009964 326.849915,154.879242 
	C327.538361,154.593582 327.775299,154.403229 327.983795,154.177444 
z"/>
<path fill="#C0A352" opacity="1.000000" stroke="none" 
	d="
M260.794281,378.347290 
	C241.991272,376.511414 224.908630,370.260742 210.034698,358.438202 
	C208.231262,357.004700 206.715775,355.208862 205.049164,353.232574 
	C213.138458,354.202728 221.245438,355.521271 230.062744,357.199341 
	C237.178146,357.700348 243.583221,357.841766 250.340027,358.064636 
	C253.876251,358.753479 257.060730,359.360931 260.320557,359.982758 
	C255.916061,365.799316 255.923813,365.759949 262.922272,367.137665 
	C263.872864,367.324768 264.700256,368.137817 266.885040,369.430359 
	C263.325897,370.502289 261.100464,371.172516 258.875000,371.842773 
	C259.767426,372.688782 260.556061,372.724915 261.298859,372.928375 
	C262.441315,373.241333 263.552307,373.669098 264.676666,374.048157 
	C263.915253,375.100281 263.204254,376.194824 262.370819,377.186432 
	C261.962677,377.672028 261.326965,377.966370 260.794281,378.347290 
z"/>
<path fill="#D9BF76" opacity="1.000000" stroke="none" 
	d="
M285.932526,343.980835 
	C300.276886,343.014435 309.259521,333.290894 318.474030,323.990112 
	C320.893829,321.547668 323.064575,318.872925 326.577515,322.486542 
	C326.961853,322.881897 327.834045,322.943787 328.474060,322.927612 
	C333.843628,322.792114 337.076324,325.481598 339.100067,330.313416 
	C339.516327,331.307312 341.476532,331.654541 342.725098,332.299835 
	C342.722321,331.169678 342.859161,330.017395 342.683990,328.914612 
	C342.422974,327.270966 341.915009,325.667236 341.612976,324.027954 
	C341.592163,323.915039 342.714355,323.397156 342.790619,323.490021 
	C343.854675,324.785828 344.829041,326.155304 346.628082,327.050201 
	C347.771118,328.484924 348.914185,329.919678 350.096039,331.718170 
	C350.134857,332.081940 350.083954,332.053314 349.747375,332.117737 
	C345.581360,334.440887 343.074646,337.547974 342.982666,342.203918 
	C340.268738,345.993011 337.645752,349.852570 334.793884,353.534821 
	C333.727936,354.911224 332.128387,355.874390 330.421570,356.705505 
	C331.869019,352.955444 333.667023,349.525848 335.937500,345.194977 
	C333.459930,345.312378 331.772614,345.442230 330.084442,345.454468 
	C328.987305,345.462372 326.977722,345.466431 326.926361,345.187195 
	C326.002258,340.163544 320.879272,340.120209 318.054230,337.446075 
	C314.236481,333.832245 310.820892,334.718506 306.987579,337.452789 
	C303.259918,340.111725 299.137024,342.210785 295.339569,344.780182 
	C293.693909,345.893646 292.429047,347.569977 290.596497,348.998230 
	C287.138702,349.664429 284.075562,350.323029 281.009705,350.586060 
	C280.998322,349.134338 280.989624,348.078186 281.319458,346.991028 
	C282.435699,346.289642 283.213409,345.619263 284.260376,344.882751 
	C284.997284,344.537994 285.464905,344.259430 285.932526,343.980835 
z"/>
<path fill="#334D5F" opacity="1.000000" stroke="none" 
	d="
M282.898590,257.535095 
	C282.229309,256.264252 281.172302,254.549698 281.084045,252.786621 
	C280.839691,247.906342 280.999359,243.005829 280.999359,238.113312 
	C280.375214,238.049957 279.751068,237.986588 279.126953,237.923233 
	C278.523102,242.012619 277.919250,246.102020 277.315399,250.191406 
	C276.847168,250.232010 276.378967,250.272598 275.910767,250.313202 
	C275.407318,247.485703 274.903900,244.658203 274.659760,243.287109 
	C269.055695,241.015106 264.361847,239.037766 259.601257,237.236740 
	C258.475067,236.810669 257.124786,236.977020 255.560287,236.939117 
	C255.488007,233.235001 255.771835,229.464676 255.969040,225.689804 
	C256.277740,219.780655 260.613678,217.201828 265.265747,216.138870 
	C270.608063,214.918167 276.205109,216.217300 279.340790,221.172150 
	C281.334503,224.322495 282.572662,228.390991 282.799500,232.129684 
	C283.302246,240.415466 282.954071,248.752884 282.898590,257.535095 
z"/>
<path fill="#30495B" opacity="1.000000" stroke="none" 
	d="
M222.028778,223.489136 
	C211.957779,224.276657 206.028976,232.245483 198.391113,237.160187 
	C197.727127,237.587448 196.892532,238.351212 196.832260,239.021210 
	C196.281021,245.148560 190.781250,246.157455 186.571884,248.917084 
	C186.189850,246.997467 186.089706,244.991791 186.080978,242.985733 
	C186.059296,238.003891 186.077606,233.021866 186.082977,228.039917 
	C186.090652,220.908249 191.568436,215.345047 198.780411,215.051010 
	C202.405243,214.903229 206.023056,214.458633 209.646454,214.427521 
	C215.775421,214.374878 218.718933,219.020279 222.028778,223.489136 
z"/>
<path fill="#CFB467" opacity="1.000000" stroke="none" 
	d="
M281.012451,350.981628 
	C284.075562,350.323029 287.138702,349.664429 290.980225,348.927246 
	C297.515381,346.600403 302.691620,346.498016 307.734711,351.160461 
	C310.353149,353.581238 314.623169,354.154541 317.452148,356.427368 
	C319.843994,358.348969 321.234802,361.516632 323.068665,364.132874 
	C318.955109,367.421509 314.841553,370.710175 310.392334,374.106812 
	C308.519257,374.187714 306.939331,373.915985 305.451508,374.174377 
	C297.481201,375.558441 289.533844,377.074738 281.360992,378.256348 
	C281.766327,377.634033 282.389252,377.300720 283.407013,376.899109 
	C289.670990,375.606262 295.540161,374.381744 301.409302,373.157227 
	C301.337189,372.653778 301.265076,372.150299 301.192932,371.646820 
	C299.681915,371.204315 298.170898,370.761780 296.720856,370.337128 
	C296.663147,360.126221 289.845001,353.144684 280.054688,352.710205 
	C280.412018,351.945709 280.712219,351.463654 281.012451,350.981628 
z"/>
<path fill="#D5BA6D" opacity="1.000000" stroke="none" 
	d="
M323.380005,363.985352 
	C321.234802,361.516632 319.843994,358.348969 317.452148,356.427368 
	C314.623169,354.154541 310.353149,353.581238 307.734711,351.160461 
	C302.691620,346.498016 297.515381,346.600403 291.374939,348.919678 
	C292.429047,347.569977 293.693909,345.893646 295.339569,344.780182 
	C299.137024,342.210785 303.259918,340.111725 306.987579,337.452789 
	C310.820892,334.718506 314.236481,333.832245 318.054230,337.446075 
	C320.879272,340.120209 326.002258,340.163544 326.926361,345.187195 
	C326.977722,345.466431 328.987305,345.462372 330.084442,345.454468 
	C331.772614,345.442230 333.459930,345.312378 335.937500,345.194977 
	C333.667023,349.525848 331.869019,352.955444 330.069611,356.755493 
	C327.942596,359.363220 325.817017,361.600525 323.380005,363.985352 
z"/>
<path fill="#395569" opacity="1.000000" stroke="none" 
	d="
M255.182861,249.475769 
	C256.043701,249.186218 257.077148,249.098618 257.614868,249.572998 
	C269.710907,260.244476 280.233215,276.428558 263.490295,292.903412 
	C259.793671,296.540863 255.459930,299.544006 251.329605,302.722382 
	C249.022949,304.497406 247.006561,303.857727 245.268036,300.874695 
	C246.661484,298.768402 248.080002,296.958405 249.907593,295.786102 
	C256.435028,291.599152 260.180115,285.712891 261.444885,278.137787 
	C262.592743,271.262939 260.291199,266.765289 255.212128,266.014099 
	C255.182938,260.655884 255.153748,255.297684 255.182861,249.475769 
z"/>
<path fill="#334D5F" opacity="1.000000" stroke="none" 
	d="
M246.996338,310.393799 
	C248.404037,310.312103 249.882034,310.510651 251.319016,310.872131 
	C253.808548,311.498444 255.520111,311.283447 257.857849,309.287781 
	C261.891876,305.843994 267.056000,303.760742 271.492157,300.734650 
	C273.496429,299.367462 274.891479,297.107208 277.044250,294.717926 
	C277.923309,294.975983 279.594788,295.466644 281.629944,296.441772 
	C282.012177,300.671783 282.030731,304.417328 282.049286,308.162903 
	C280.328644,315.873627 276.630432,319.385010 268.973022,319.789215 
	C263.253265,320.091125 257.202515,321.031097 252.263626,317.032104 
	C250.188995,315.352325 248.766907,312.866638 246.996338,310.393799 
z"/>
<path fill="#C5A759" opacity="1.000000" stroke="none" 
	d="
M325.632996,155.217590 
	C327.026428,156.272217 327.836639,157.891281 329.101715,158.418243 
	C336.437378,161.473801 343.788116,164.453781 348.657623,171.203827 
	C350.762268,174.121262 352.624420,177.213638 354.498932,180.077179 
	C353.607056,181.940369 352.792633,183.641739 351.944611,185.719421 
	C349.800018,186.919876 348.128540,179.831467 345.345642,185.578979 
	C340.570801,180.356888 336.250671,175.248093 331.734985,170.318451 
	C330.967621,169.480713 329.360931,169.411789 328.141998,168.987686 
	C323.855438,165.935242 319.568878,162.882782 315.282318,159.830338 
	C315.511383,159.334320 315.740479,158.838303 315.969543,158.342285 
	C319.066315,157.320709 322.163116,156.299118 325.632996,155.217590 
z"/>
<path fill="#CFB467" opacity="1.000000" stroke="none" 
	d="
M328.074921,169.305756 
	C329.360931,169.411789 330.967621,169.480713 331.734985,170.318451 
	C336.250671,175.248093 340.570801,180.356888 345.058533,185.743576 
	C342.153595,190.175430 339.146942,194.269043 335.621643,198.673553 
	C333.528229,198.015976 331.751221,197.267014 330.416962,196.037521 
	C326.529419,192.455322 322.818939,188.680969 319.030029,184.626465 
	C318.971649,183.799057 318.922272,183.327133 318.872864,182.855225 
	C318.872864,182.855225 318.931213,182.930878 319.102631,182.794769 
	C319.511169,182.393036 319.748291,182.127441 319.985443,181.861847 
	C319.985443,181.861847 319.980530,182.001923 320.126404,181.777115 
	C320.481079,180.989395 320.689911,180.426483 320.898743,179.863556 
	C320.937042,179.512131 321.104065,179.239563 321.835022,178.830566 
	C322.529266,178.412643 322.735687,178.166000 322.889465,177.875275 
	C323.358398,176.982819 323.827362,176.090363 324.789093,174.919617 
	C325.492950,174.382599 325.704010,174.123856 325.915100,173.865112 
	C325.975311,173.524384 326.151215,173.260880 326.885742,172.801147 
	C327.531128,171.991852 327.733643,171.456024 327.936157,170.920212 
	C327.960052,170.488083 327.983948,170.055939 328.074921,169.305756 
z"/>
<path fill="#C8AA5A" opacity="1.000000" stroke="none" 
	d="
M283.012177,376.967407 
	C282.389252,377.300720 281.766327,377.634033 280.891541,378.238586 
	C274.258972,378.618927 267.878296,378.727997 261.145935,378.592163 
	C261.326965,377.966370 261.962677,377.672028 262.370819,377.186432 
	C263.204254,376.194824 263.915253,375.100281 264.676666,374.048157 
	C263.552307,373.669098 262.441315,373.241333 261.298859,372.928375 
	C260.556061,372.724915 259.767426,372.688782 258.875000,371.842773 
	C261.100464,371.172516 263.325897,370.502289 266.885040,369.430359 
	C264.700256,368.137817 263.872864,367.324768 262.922272,367.137665 
	C255.923813,365.759949 255.916061,365.799316 260.320557,359.982758 
	C257.060730,359.360931 253.876251,358.753479 250.516479,357.862000 
	C250.887573,357.112701 251.433914,356.647461 251.980255,356.182220 
	C251.980270,356.182220 252.417145,356.015747 253.054184,356.006104 
	C256.462036,355.998077 259.232849,355.999634 262.391113,356.007019 
	C265.919037,357.394073 269.830048,358.029327 272.039764,360.311707 
	C276.663727,365.087585 283.602539,368.666077 283.012177,376.967407 
z"/>
<path fill="#D9BF76" opacity="1.000000" stroke="none" 
	d="
M305.925140,200.848907 
	C307.600189,198.384109 309.246674,195.899277 310.958282,193.460114 
	C312.690582,190.991379 314.487366,188.567886 316.611267,186.443207 
	C316.284912,192.856659 316.950867,198.269089 323.971527,200.394455 
	C326.916656,201.286011 329.879944,202.117691 332.834961,202.976593 
	C329.472565,207.902969 326.110168,212.829346 322.115479,217.760376 
	C317.734314,214.432281 314.081512,210.981903 310.200256,207.811142 
	C307.894562,205.927521 305.181763,204.513809 305.925140,200.848907 
z"/>
<path fill="#576B7A" opacity="1.000000" stroke="none" 
	d="
M161.385742,218.013199 
	C158.281281,219.014618 155.489899,219.874146 152.357330,220.821960 
	C157.589081,205.927719 166.968765,195.067307 183.119858,190.808975 
	C186.661285,189.875259 189.479401,189.928284 192.766846,191.677658 
	C180.602097,198.220642 171.028305,207.898575 161.385742,218.013199 
z"/>
<path fill="#DCC37C" opacity="1.000000" stroke="none" 
	d="
M305.615265,201.020691 
	C305.181763,204.513809 307.894562,205.927521 310.200256,207.811142 
	C314.081512,210.981903 317.734314,214.432281 321.809387,217.920227 
	C317.694427,221.731476 315.581085,226.987701 312.214478,232.117035 
	C311.481567,233.046707 311.274078,233.602936 311.066589,234.159149 
	C311.066589,234.159149 311.019562,234.021011 310.881348,234.174316 
	C310.487762,234.585251 310.232391,234.842865 309.977020,235.100464 
	C309.977020,235.100464 310.035309,234.999298 309.655884,235.011627 
	C308.128784,235.040085 306.981171,235.056198 305.833527,235.072311 
	C305.833527,235.072311 305.917877,235.055557 305.968140,234.738373 
	C305.732147,233.281708 305.445862,232.142227 305.159607,231.002747 
	C305.159607,231.002747 304.994781,230.614319 305.019043,229.987213 
	C304.319519,226.913010 303.595734,224.465942 302.871918,222.018860 
	C299.295410,214.564056 299.438568,207.543884 305.615265,201.020691 
z"/>
<path fill="#3F5B70" opacity="1.000000" stroke="none" 
	d="
M255.157410,266.357941 
	C260.291199,266.765289 262.592743,271.262939 261.444885,278.137787 
	C260.180115,285.712891 256.435028,291.599152 249.907593,295.786102 
	C248.080002,296.958405 246.661484,298.768402 245.025391,300.640503 
	C244.995483,300.995117 244.498138,300.999603 243.784302,300.991333 
	C242.448502,300.987518 241.826538,300.992004 241.204559,300.996460 
	C241.046356,300.627991 240.888138,300.259552 240.780975,299.362488 
	C240.209229,298.247711 239.586441,297.661469 238.963654,297.075256 
	C237.628174,295.679108 236.292679,294.282959 234.935379,292.543091 
	C235.556305,291.516388 236.085602,290.428528 236.858932,290.211884 
	C246.819382,287.421753 253.183655,281.559326 253.959167,270.325500 
	C254.355515,268.845978 254.729095,267.773895 255.157410,266.357941 
z"/>
<path fill="#3F5B70" opacity="1.000000" stroke="none" 
	d="
M239.987854,250.635742 
	C237.763138,251.976456 235.457153,252.877975 233.247299,253.973404 
	C230.299652,255.434586 227.581863,257.639008 224.484116,258.450195 
	C220.189621,259.574799 218.237106,261.152008 220.408920,265.642548 
	C220.616272,266.071289 219.791382,266.999298 219.174469,267.865295 
	C217.542404,266.742462 216.181580,265.449799 214.462494,263.751526 
	C214.065323,262.580872 214.026443,261.815826 213.990143,260.622986 
	C213.416519,255.781937 215.179993,252.844467 218.888336,250.227325 
	C223.618317,246.889191 229.525574,244.431610 231.299469,237.890747 
	C231.519073,237.918915 231.954300,238.000443 231.954285,238.000443 
	C234.619324,242.094589 237.284348,246.188736 239.987854,250.635742 
z"/>
<path fill="#D9BF76" opacity="1.000000" stroke="none" 
	d="
M366.957825,273.514221 
	C366.254730,272.166565 365.267212,270.420624 365.074066,268.590881 
	C364.491241,263.069672 364.322601,257.504486 363.724670,251.985428 
	C363.618011,251.000961 362.230621,250.155243 361.434601,249.245453 
	C360.291504,250.395340 359.148407,251.545212 357.772827,252.928970 
	C357.295624,252.547638 356.453552,251.874725 355.313782,251.103699 
	C355.284332,237.843140 355.793427,224.667847 352.965027,211.230621 
	C355.478088,216.793121 358.201508,222.707825 360.368164,228.819885 
	C365.436676,243.118042 366.578613,258.057831 366.957825,273.514221 
z"/>
<path fill="#D5BA6D" opacity="1.000000" stroke="none" 
	d="
M332.977448,202.687759 
	C329.879944,202.117691 326.916656,201.286011 323.971527,200.394455 
	C316.950867,198.269089 316.284912,192.856659 316.933533,186.298492 
	C316.932312,185.497528 317.090515,185.236465 317.903229,185.012482 
	C318.633972,184.975998 318.836487,184.978989 319.039001,184.981964 
	C322.818939,188.680969 326.529419,192.455322 330.416962,196.037521 
	C331.751221,197.267014 333.528229,198.015976 335.470581,198.990952 
	C334.932129,200.131271 334.026031,201.265106 332.977448,202.687759 
z"/>
<path fill="#E4D6A9" opacity="1.000000" stroke="none" 
	d="
M286.064209,343.652130 
	C285.464905,344.259430 284.997284,344.537994 283.952209,344.930542 
	C282.233337,345.013885 281.091858,344.983307 279.950409,344.952698 
	C289.619995,338.924774 298.616119,332.077209 306.066223,323.369354 
	C307.219727,322.021088 308.217377,320.539459 309.612976,318.993713 
	C309.967133,327.406891 304.009125,332.388702 298.321075,337.089752 
	C294.899323,339.917786 290.278076,341.294495 286.064209,343.652130 
z"/>
<path fill="#D5BA6D" opacity="1.000000" stroke="none" 
	d="
M281.009705,350.586060 
	C280.712219,351.463654 280.412018,351.945709 279.685486,352.784668 
	C273.795624,356.461914 267.775330,354.600494 261.810699,354.860840 
	C261.384857,354.528107 261.176483,354.302612 261.314667,353.982788 
	C262.750854,353.328186 263.871094,352.739655 264.991364,352.151093 
	C265.454041,351.771515 265.916748,351.391968 266.790894,351.144928 
	C267.202393,351.277466 267.609161,351.360931 267.609161,351.360931 
	C267.609161,351.360931 267.992279,351.169281 267.992279,351.169281 
	C267.992279,351.169281 268.432739,351.020599 269.065979,351.000732 
	C271.435120,349.954498 273.170990,348.928131 274.906891,347.901764 
	C274.906891,347.901764 274.966339,347.942322 275.135132,347.839600 
	C275.575531,347.580322 275.808807,347.379333 276.003784,347.133942 
	C276.003784,347.133942 276.430054,346.998566 277.063171,346.994598 
	C278.791168,347.001099 279.886047,347.011566 280.980957,347.022034 
	C280.989624,348.078186 280.998322,349.134338 281.009705,350.586060 
z"/>
<path fill="#C5A759" opacity="1.000000" stroke="none" 
	d="
M352.066559,186.396317 
	C356.559235,185.721024 359.307129,183.258545 360.318024,178.698029 
	C360.796539,176.539215 361.548645,174.441040 362.497131,172.153076 
	C362.544250,177.747742 362.358307,183.510773 361.958160,189.258896 
	C361.778320,191.841980 360.187195,192.818909 357.919708,191.320786 
	C355.889130,189.979172 354.109222,188.258163 352.066559,186.396317 
z"/>
<path fill="#C5A759" opacity="1.000000" stroke="none" 
	d="
M342.653076,148.058548 
	C339.166962,155.765869 338.079987,156.243011 330.328064,153.359039 
	C334.110840,151.430878 338.195770,149.710922 342.653076,148.058548 
z"/>
<path fill="#3F5B70" opacity="1.000000" stroke="none" 
	d="
M282.405121,307.904846 
	C282.030731,304.417328 282.012177,300.671783 281.987183,296.463654 
	C281.983643,294.281677 281.986603,292.562286 281.984741,290.171814 
	C281.979889,289.500763 281.974030,289.017426 281.974060,289.017426 
	C282.129272,282.940643 282.284485,276.863831 282.640137,270.437012 
	C282.813995,282.606873 282.787476,295.126831 282.405121,307.904846 
z"/>
<path fill="#919FA8" opacity="1.000000" stroke="none" 
	d="
M213.987549,261.050812 
	C214.026443,261.815826 214.065323,262.580872 214.139832,263.726501 
	C214.106018,275.396667 214.036606,286.686188 213.912460,298.436279 
	C213.603058,296.206207 213.348358,293.515594 213.079498,289.925018 
	C213.043411,285.558777 212.894592,282.087677 213.028000,278.627411 
	C213.254013,272.764923 213.658234,266.909302 213.987549,261.050812 
z"/>
<path fill="#C5A759" opacity="1.000000" stroke="none" 
	d="
M324.590454,287.009399 
	C325.766144,293.291809 323.922699,298.917389 319.260315,303.854553 
	C320.704224,298.366302 322.478058,292.781921 324.590454,287.009399 
z"/>
<path fill="#30495B" opacity="1.000000" stroke="none" 
	d="
M185.694565,258.138184 
	C186.311218,260.700989 186.949371,263.419586 186.950974,266.138550 
	C186.955536,273.852417 186.699936,281.566437 186.292938,289.171692 
	C186.022812,283.939301 186.114120,278.812378 185.958115,273.692963 
	C185.819687,269.150238 185.406616,264.615845 185.114792,260.077789 
	C185.218338,259.483215 185.321884,258.888672 185.694565,258.138184 
z"/>
<path fill="#919FA8" opacity="1.000000" stroke="none" 
	d="
M185.059875,260.539917 
	C185.406616,264.615845 185.819687,269.150238 185.958115,273.692963 
	C186.114120,278.812378 186.022812,283.939301 186.089233,289.529144 
	C185.971771,291.157104 185.804169,292.318848 185.370758,293.712280 
	C185.071655,282.963287 185.038315,271.982666 185.059875,260.539917 
z"/>
<path fill="#CFB467" opacity="1.000000" stroke="none" 
	d="
M251.529755,356.118713 
	C251.433914,356.647461 250.887573,357.112701 250.164749,357.780579 
	C243.583221,357.841766 237.178146,357.700348 230.411041,357.372437 
	C237.059082,356.809052 244.069183,356.432129 251.529755,356.118713 
z"/>
<path fill="#DCC37C" opacity="1.000000" stroke="none" 
	d="
M343.349609,342.128723 
	C343.074646,337.547974 345.581360,334.440887 349.758301,332.143799 
	C347.976044,335.421448 345.846283,338.737457 343.349609,342.128723 
z"/>
<path fill="#CFB467" opacity="1.000000" stroke="none" 
	d="
M260.998749,354.048828 
	C261.176483,354.302612 261.384857,354.528107 261.812317,355.112061 
	C262.001740,355.666290 262.002716,355.833771 262.003662,356.001221 
	C259.232849,355.999634 256.462036,355.998077 253.286652,355.981689 
	C255.327148,354.960297 257.772217,353.953735 260.592224,353.262512 
	C260.967194,353.577850 260.998749,354.048828 260.998749,354.048828 
z"/>
<path fill="#C5A759" opacity="1.000000" stroke="none" 
	d="
M315.896606,315.916718 
	C314.259338,317.062439 312.472443,317.922363 310.325867,318.746948 
	C311.047272,317.140411 312.128357,315.569214 313.558136,313.956299 
	C314.520203,314.486633 315.133606,315.058777 315.896606,315.916718 
z"/>
<path fill="#C5A759" opacity="1.000000" stroke="none" 
	d="
M318.629120,304.105896 
	C317.809723,306.559326 316.677979,309.177521 315.196289,311.869324 
	C316.003143,309.385498 317.159973,306.828094 318.629120,304.105896 
z"/>
<path fill="#D9BF76" opacity="1.000000" stroke="none" 
	d="
M274.546600,347.942322 
	C273.170990,348.928131 271.435120,349.954498 269.296753,350.973022 
	C270.658295,349.971130 272.422302,348.977020 274.546600,347.942322 
z"/>
<path fill="#E4D6A9" opacity="1.000000" stroke="none" 
	d="
M305.921234,235.447205 
	C306.981171,235.056198 308.128784,235.040085 309.706360,235.040924 
	C308.963257,236.022583 307.790253,236.987274 306.617249,237.951996 
	C306.414490,237.242035 306.211731,236.532074 305.921234,235.447205 
z"/>
<path fill="#DCC37C" opacity="1.000000" stroke="none" 
	d="
M281.319458,346.991028 
	C279.886047,347.011566 278.791168,347.001099 277.285706,346.972656 
	C277.696320,346.354736 278.517487,345.754791 279.644531,345.053772 
	C281.091858,344.983307 282.233337,345.013885 283.682953,344.996674 
	C283.213409,345.619263 282.435699,346.289642 281.319458,346.991028 
z"/>
<path fill="#E4D6A9" opacity="1.000000" stroke="none" 
	d="
M302.924683,222.428986 
	C303.595734,224.465942 304.319519,226.913010 305.017242,229.776230 
	C304.319916,227.741287 303.648651,225.290192 302.924683,222.428986 
z"/>
<path fill="#395569" opacity="1.000000" stroke="none" 
	d="
M239.003036,297.397400 
	C239.586441,297.661469 240.209229,298.247711 240.735825,299.165100 
	C240.107239,298.903992 239.574829,298.311768 239.003036,297.397400 
z"/>
<path fill="#395569" opacity="1.000000" stroke="none" 
	d="
M241.147736,301.265656 
	C241.826538,300.992004 242.448502,300.987518 243.535645,300.993958 
	C243.687057,301.837616 243.373291,302.670380 242.997803,303.832397 
	C242.321030,303.286041 241.705978,302.410431 241.147736,301.265656 
z"/>
<path fill="#D9BF76" opacity="1.000000" stroke="none" 
	d="
M261.314667,353.982788 
	C260.998749,354.048828 260.967194,353.577850 260.966858,353.341827 
	C262.071930,352.731781 263.177399,352.357758 264.637085,352.067383 
	C263.871094,352.739655 262.750854,353.328186 261.314667,353.982788 
z"/>
<path fill="#334D5F" opacity="1.000000" stroke="none" 
	d="
M244.990875,308.544586 
	C245.547012,308.681671 246.245697,309.059509 246.951767,309.743958 
	C246.350571,309.628815 245.741989,309.207062 244.990875,308.544586 
z"/>
<path fill="#C5A759" opacity="1.000000" stroke="none" 
	d="
M351.595337,144.937027 
	C350.857605,145.245071 349.749115,145.598312 348.274780,145.923370 
	C349.014099,145.590866 350.119354,145.286545 351.595337,144.937027 
z"/>
<path fill="#E4D6A9" opacity="1.000000" stroke="none" 
	d="
M305.098083,231.384705 
	C305.445862,232.142227 305.732147,233.281708 305.974457,234.780884 
	C305.632507,234.015961 305.334534,232.891312 305.098083,231.384705 
z"/>
<path fill="#334D5F" opacity="1.000000" stroke="none" 
	d="
M163.652527,161.892181 
	C163.484573,162.459351 162.982712,163.096817 162.199051,163.865829 
	C162.384369,163.319077 162.851501,162.640762 163.652527,161.892181 
z"/>
<path fill="#C5A759" opacity="1.000000" stroke="none" 
	d="
M325.114258,283.386292 
	C325.284882,283.857727 325.387360,284.694550 325.326599,285.751984 
	C325.124298,285.232269 325.085205,284.491974 325.114258,283.386292 
z"/>
<path fill="#C5A759" opacity="1.000000" stroke="none" 
	d="
M345.677948,146.939285 
	C345.491272,147.216797 344.984192,147.537064 344.176208,147.906281 
	C344.369415,147.630814 344.863495,147.306427 345.677948,146.939285 
z"/>
<path fill="#C5A759" opacity="1.000000" stroke="none" 
	d="
M347.671448,145.920746 
	C347.494354,146.209366 346.999969,146.527908 346.208405,146.889099 
	C346.392181,146.604706 346.873199,146.277679 347.671448,145.920746 
z"/>
<path fill="#D9BF76" opacity="1.000000" stroke="none" 
	d="
M319.030029,184.626465 
	C318.836487,184.978989 318.633972,184.975998 318.129028,184.946716 
	C317.985321,184.321228 318.144012,183.722046 318.587830,182.989044 
	C318.922272,183.327133 318.971649,183.799057 319.030029,184.626465 
z"/>
<path fill="#E4D6A9" opacity="1.000000" stroke="none" 
	d="
M311.369202,234.031189 
	C311.274078,233.602936 311.481567,233.046707 311.889893,232.261169 
	C311.951080,232.655624 311.811432,233.279419 311.369202,234.031189 
z"/>
<path fill="#D5BA6D" opacity="1.000000" stroke="none" 
	d="
M320.611816,180.005859 
	C320.689911,180.426483 320.481079,180.989395 320.056366,181.774399 
	C320.001953,181.380386 320.163422,180.764282 320.611816,180.005859 
z"/>
<path fill="#D5BA6D" opacity="1.000000" stroke="none" 
	d="
M327.644043,171.032593 
	C327.733643,171.456024 327.531128,171.991852 327.117065,172.725922 
	C327.054321,172.331100 327.203125,171.738037 327.644043,171.032593 
z"/>
<path fill="#C5A759" opacity="1.000000" stroke="none" 
	d="
M327.722260,154.152451 
	C327.775299,154.403229 327.538361,154.593582 327.071747,154.857086 
	C327.067261,154.686249 327.264008,154.406860 327.722260,154.152451 
z"/>
<path fill="#D5BA6D" opacity="1.000000" stroke="none" 
	d="
M325.654907,173.940765 
	C325.704010,174.123856 325.492950,174.382599 325.073486,174.781616 
	C325.041626,174.620056 325.218201,174.318237 325.654907,173.940765 
z"/>
<path fill="#D5BA6D" opacity="1.000000" stroke="none" 
	d="
M322.641724,177.947479 
	C322.735687,178.166000 322.529266,178.412643 322.064575,178.741287 
	C322.037323,178.584793 322.215668,178.302246 322.641724,177.947479 
z"/>
<path fill="#334E61" opacity="1.000000" stroke="none" 
	d="
M231.980255,237.735641 
	C231.954300,238.000443 231.519073,237.918915 231.274567,237.683868 
	C231.030060,237.448807 230.968216,237.033051 230.968216,237.033051 
	C230.968216,237.033051 231.112411,236.890839 231.184937,236.819183 
	C231.507050,236.988632 231.756638,237.229736 231.980255,237.735641 
z"/>
<path fill="#E4D6A9" opacity="1.000000" stroke="none" 
	d="
M310.261169,235.024185 
	C310.232391,234.842865 310.487762,234.585251 310.950623,234.151398 
	C310.953827,234.299393 310.749542,234.623642 310.261169,235.024185 
z"/>
<path fill="#D9BF76" opacity="1.000000" stroke="none" 
	d="
M267.745422,351.099854 
	C267.992279,351.169281 267.609161,351.360931 267.609161,351.360931 
	C267.609161,351.360931 267.202393,351.277466 267.095154,351.177887 
	C267.158142,351.062347 267.328369,351.046417 267.745422,351.099854 
z"/>
<path fill="#D9BF76" opacity="1.000000" stroke="none" 
	d="
M319.704956,181.938599 
	C319.748291,182.127441 319.511169,182.393036 319.063751,182.822510 
	C319.043793,182.662704 319.234100,182.339020 319.704956,181.938599 
z"/>
<path fill="#D9BF76" opacity="1.000000" stroke="none" 
	d="
M275.730591,347.096802 
	C275.808807,347.379333 275.575531,347.580322 275.100830,347.850464 
	C275.084290,347.662598 275.270844,347.361115 275.730591,347.096802 
z"/>
<path fill="#D9BF76" opacity="1.000000" stroke="none" 
	d="
M351.993774,208.757843 
	C351.835876,208.772247 351.599762,208.521439 351.194458,208.076691 
	C351.322052,208.086044 351.618774,208.289337 351.993774,208.757843 
z"/>
<path fill="#D9BF76" opacity="1.000000" stroke="none" 
	d="
M352.931580,209.777878 
	C352.653442,209.839920 352.417480,209.610001 352.097473,209.142700 
	C352.333557,209.098862 352.653687,209.292389 352.931580,209.777878 
z"/>
<path fill="#30495B" opacity="1.000000" stroke="none" 
	d="
M195.076477,159.416168 
	C197.041000,159.074631 199.090668,159.063278 201.579651,159.081375 
	C201.310349,160.288132 200.601715,161.465439 199.893082,162.642746 
	C198.315933,161.677261 196.738770,160.711792 195.076477,159.416168 
z"/>
<path fill="#395569" opacity="1.000000" stroke="none" 
	d="
M230.595505,237.001038 
	C230.968216,237.033051 231.030060,237.448807 231.054962,237.655701 
	C229.525574,244.431610 223.618317,246.889191 218.888336,250.227325 
	C215.179993,252.844467 213.416519,255.781937 213.990143,260.622986 
	C213.658234,266.909302 213.254013,272.764923 213.028000,278.627411 
	C212.894592,282.087677 213.043411,285.558777 213.060913,289.489136 
	C212.572952,290.622009 212.086899,291.288971 211.606384,291.959961 
	C210.523773,293.471680 209.443909,294.985352 208.362930,296.498230 
	C206.920349,294.868103 205.037552,293.450623 204.126099,291.563873 
	C202.181442,287.538391 199.858856,283.393829 199.251007,279.078339 
	C197.038147,263.368195 202.536301,250.544708 215.200806,240.881973 
	C215.861420,240.377945 216.634033,240.008926 217.249435,239.459381 
	C221.085999,236.033463 225.192886,234.129959 230.595505,237.001038 
z"/>
<path fill="#334D5F" opacity="1.000000" stroke="none" 
	d="
M281.878540,289.124420 
	C281.974030,289.017426 281.979889,289.500763 281.977325,289.742126 
	C281.723206,289.771454 281.659302,289.520752 281.878540,289.124420 
z"/>
<path fill="#CDB05F" opacity="1.000000" stroke="none" 
	d="
M262.391113,356.007019 
	C262.002716,355.833771 262.001740,355.666290 261.999146,355.247589 
	C267.775330,354.600494 273.795624,356.461914 279.628357,353.067139 
	C289.845001,353.144684 296.663147,360.126221 296.720856,370.337128 
	C298.170898,370.761780 299.681915,371.204315 301.192932,371.646820 
	C301.265076,372.150299 301.337189,372.653778 301.409302,373.157227 
	C295.540161,374.381744 289.670990,375.606262 283.407013,376.899078 
	C283.602539,368.666077 276.663727,365.087585 272.039764,360.311707 
	C269.830048,358.029327 265.919037,357.394073 262.391113,356.007019 
z"/>
</svg>