<?xml version="1.0" encoding="UTF-8"?>
<svg version="1.1" xmlns="http://www.w3.org/2000/svg" viewBox="0 0 1120 928" width="180" height="180">
<path d="M0 0 C369.6 0 739.2 0 1120 0 C1120 306.24 1120 612.48 1120 928 C750.4 928 380.8 928 0 928 C0 621.76 0 315.52 0 0 Z " fill="#FDFEFD" transform="translate(0,0)"/>
<path d="M0 0 C1.15580566 0.26611084 1.15580566 0.26611084 2.33496094 0.53759766 C28.65351116 6.83162823 50.80861059 21.39527639 70 40 C70.75023437 40.71027344 71.50046875 41.42054688 72.2734375 42.15234375 C77.67325363 47.37074313 82.32431937 53.13489184 87 59 C87.69351562 59.84949219 88.38703125 60.69898438 89.1015625 61.57421875 C91.09696987 64.02803051 93.05747543 66.50415025 95 69 C96.03447266 70.32257813 96.03447266 70.32257813 97.08984375 71.671875 C97.74082031 72.54328125 98.39179687 73.4146875 99.0625 74.3125 C99.65160156 75.09238281 100.24070312 75.87226563 100.84765625 76.67578125 C102.32892652 79.66342807 101.90784477 80.83315449 101 84 C99.72827148 86.15307617 99.72827148 86.15307617 98.12109375 88.29296875 C97.53360352 89.08292236 96.94611328 89.87287598 96.34082031 90.68676758 C95.71272461 91.51200928 95.08462891 92.33725098 94.4375 93.1875 C93.79780273 94.04174561 93.15810547 94.89599121 92.49902344 95.77612305 C88.74436088 100.76948136 84.90988898 105.68611232 80.94140625 110.51171875 C79.35617153 112.54349846 77.86963309 114.59092241 76.40234375 116.70703125 C75.95213867 117.35438232 75.50193359 118.0017334 75.03808594 118.66870117 C74.15326788 119.95034381 73.27724189 121.23811143 72.41113281 122.5324707 C71.34712678 124.07467928 70.18039638 125.54494656 69 127 C68.01 127 67.02 127 66 127 C64.046875 124.68359375 64.046875 124.68359375 61.75 121.4375 C51.33232418 107.27372185 37.73152742 94.06213689 22.38671875 85.38671875 C20 84 20 84 17.1875 82.02734375 C13.6593847 79.78335865 10.21956938 78.31024998 6.3125 76.875 C5.66861328 76.62363281 5.02472656 76.37226563 4.36132812 76.11328125 C-13.854255 69.3113724 -36.41884738 69.09141848 -54.20654297 77.11914062 C-58.58205651 79.26818131 -62.30629804 81.83674211 -66 85 C-66.84949219 85.70253906 -67.69898438 86.40507812 -68.57421875 87.12890625 C-77.30428653 94.63232774 -83.31238705 102.02877886 -87 113 C-87.66 113 -88.32 113 -89 113 C-89.31307386 114.70822826 -89.62543008 116.41658805 -89.9375 118.125 C-90.11152344 119.07632813 -90.28554688 120.02765625 -90.46484375 121.0078125 C-90.72974609 122.48894531 -90.72974609 122.48894531 -91 124 C-91.17917969 124.96292969 -91.35835938 125.92585937 -91.54296875 126.91796875 C-94.6342636 147.76439302 -88.32320836 165.63216331 -76.28515625 182.38671875 C-68.65558187 191.88171474 -58.34846113 198.01312707 -47 202 C-45.74123047 202.46019531 -45.74123047 202.46019531 -44.45703125 202.9296875 C-26.03931491 209.40828119 -6.90634305 206.33132508 10.390625 198.14355469 C13.64783175 196.52272136 16.83318187 194.79005662 20 193 C20.97324219 192.45601562 21.94648438 191.91203125 22.94921875 191.3515625 C39.41761986 181.49456329 53.20449891 166.78250141 64.87890625 151.71875 C67.13320048 148.82926789 69.45000712 145.99806434 71.77539062 143.16577148 C76.67352096 137.19218812 81.43936613 131.17898649 85.92578125 124.88671875 C88.48523143 121.32469675 91.1138021 117.81791711 93.75 114.3125 C94.26054932 113.63316406 94.77109863 112.95382812 95.29711914 112.25390625 C96.34303417 110.86262188 97.38917869 109.47150999 98.43554688 108.08056641 C100.46260929 105.38477584 102.48632731 102.68648733 104.50952148 99.98779297 C105.50340818 98.66228511 106.49771186 97.33708982 107.49243164 96.01220703 C110.03758666 92.62171327 112.5766428 89.22691305 115.10546875 85.82421875 C120.88755104 78.05485932 126.77145285 70.42056221 133 63 C133.85949407 61.96494261 134.71886376 60.92978193 135.578125 59.89453125 C152.66335134 39.40335594 171.09948211 19.84877336 196 9 C196.98355469 8.56300781 197.96710938 8.12601562 198.98046875 7.67578125 C201.96616325 6.3895765 204.97134803 5.18113436 208 4 C208.88558594 3.6390625 209.77117187 3.278125 210.68359375 2.90625 C231.03551409 -4.71489464 256.90905917 -5.72318252 278 -1 C279.37285156 -0.70802734 279.37285156 -0.70802734 280.7734375 -0.41015625 C283.87735238 0.30842131 286.93226341 1.1396233 290 2 C290.67772461 2.17982422 291.35544922 2.35964844 292.05371094 2.54492188 C316.59106835 9.1299584 335.86473415 22.58517622 354 40 C354.56195068 40.53351074 355.12390137 41.06702148 355.70288086 41.61669922 C381.03071493 66.1721954 392.783064 101.89658054 393.39306641 136.46118164 C393.41036077 137.89075988 393.4251254 139.32037071 393.4375 140.75 C393.44725861 141.84149857 393.44725861 141.84149857 393.45721436 142.95504761 C393.50652658 155.00593014 391.91513107 165.55208198 387.71875 176.92333984 C386.99649549 179.01012547 386.45189808 181.08200313 385.9453125 183.23046875 C384.62111277 188.51085197 382.36067568 193.11516694 380 198 C379.54496094 198.97324219 379.08992187 199.94648437 378.62109375 200.94921875 C365.34553746 228.62169985 342.47908199 251.49911108 315 265 C314.02289062 265.51046875 313.04578125 266.0209375 312.0390625 266.546875 C305.35395197 269.88083758 298.60245639 272.17971407 291.4375 274.25 C290.58736328 274.4962915 289.73722656 274.74258301 288.86132812 274.99633789 C277.62584488 278.10715694 266.83921621 279.34416496 255.1875 279.25 C253.94991943 279.24178223 252.71233887 279.23356445 251.43725586 279.22509766 C209.36088298 278.71018185 175.92144722 259.61165403 146.890625 230.05078125 C142.62243176 225.61484858 138.7830724 220.8514062 135 216 C134.38511719 215.21753906 133.77023437 214.43507813 133.13671875 213.62890625 C131.98593597 212.15661875 130.84359312 210.6776844 129.7109375 209.19140625 C128.50520553 207.64707832 127.25570086 206.13644058 125.9765625 204.65234375 C125.32429688 203.88019531 124.67203125 203.10804688 124 202.3125 C123.401875 201.62800781 122.80375 200.94351563 122.1875 200.23828125 C121 198 121 198 121.00390625 195.16796875 C122.28302587 191.09986673 124.33314707 188.33200747 126.9375 185 C127.94619069 183.66863365 128.95398389 182.3365869 129.9609375 181.00390625 C130.72615723 180.00061279 130.72615723 180.00061279 131.50683594 178.97705078 C133.7511108 176.00547821 135.90927498 172.97537 138.0625 169.9375 C138.87358622 168.79809756 139.6847846 167.65877496 140.49609375 166.51953125 C140.90069824 165.95057129 141.30530273 165.38161133 141.72216797 164.79541016 C144.0186485 161.56875409 146.32233935 158.347247 148.625 155.125 C149.4713836 153.94012519 150.31774062 152.7552314 151.1640625 151.5703125 C151.76992188 150.72210938 152.37578125 149.87390625 153 149 C155.83201539 149.33984185 156.87886589 149.87177017 158.8671875 151.9765625 C159.52976562 152.85054687 160.19234375 153.72453125 160.875 154.625 C172.08102825 168.80820737 184.31667765 181.4345106 199.73046875 190.96875 C201.54841114 192.09817658 203.35583835 193.24731094 205.11328125 194.46875 C221.0899338 205.52133447 242.69017363 207.52682906 261.46777344 204.61767578 C265.88598641 203.59816652 269.91825042 201.94532363 274 200 C275.14597656 199.45730469 276.29195312 198.91460938 277.47265625 198.35546875 C296.04395473 188.90990592 306.83642572 175.06241451 313.4375 155.375 C317.90532111 138.27402954 315.36366387 120.81350685 307.01171875 105.39453125 C299.85494149 93.31833816 290.40208645 84.99687426 278 78.6875 C277.3598999 78.36177002 276.7197998 78.03604004 276.06030273 77.70043945 C266.56313572 73.09382823 258.04188435 71.52777448 247.5 71.6875 C246.43652344 71.68427734 245.37304688 71.68105469 244.27734375 71.67773438 C226.47144167 71.7978969 210.23924333 77.37611065 196 88 C195.10152344 88.61617188 194.20304687 89.23234375 193.27734375 89.8671875 C177.58725886 100.74865645 164.64669238 114.98558935 153 130 C151.96275414 131.31941509 150.92494514 132.63838758 149.88671875 133.95703125 C141.95106877 144.06533686 134.27639581 154.34566992 126.68164062 164.71142578 C115.12077637 180.4448087 115.12077637 180.4448087 109.125 187.8125 C105.30114684 192.51878081 101.75724859 197.41321922 98.1875 202.3125 C89.21506467 214.5802748 79.40057826 225.92690315 69 237 C68.29746094 237.76828125 67.59492187 238.5365625 66.87109375 239.328125 C55.66610588 251.14970613 41.82249034 260.35254114 27 267 C26.01 267 25.02 267 24 267 C24 267.66 24 268.32 24 269 C17.07407931 271.59392847 10.17001376 274.16558107 3 276 C1.39318359 276.42152344 1.39318359 276.42152344 -0.24609375 276.8515625 C-21.06121953 281.41086334 -45.60705294 281.21210024 -66 275 C-66.84949219 274.75330566 -67.69898438 274.50661133 -68.57421875 274.25244141 C-82.69939512 270.10202432 -96.01942312 264.72793157 -108 256 C-108 255.34 -108 254.68 -108 254 C-108.85464844 253.85111328 -108.85464844 253.85111328 -109.7265625 253.69921875 C-127.80196087 248.13994674 -144.31033773 221.82391954 -152.796875 206.1171875 C-153.14008789 205.46814453 -153.48330078 204.81910156 -153.83691406 204.15039062 C-154.68555846 202.58136044 -155.56723959 201.03006937 -156.46777344 199.49023438 C-160.33139406 192.77656006 -162.77543556 186.22641635 -164.75 178.75 C-165.19484741 177.09170166 -165.19484741 177.09170166 -165.64868164 175.39990234 C-175.05357156 139.44142497 -171.02693542 100.24994263 -152.34375 67.82421875 C-145.71044837 56.81416231 -137.90482995 47.23720307 -129 38 C-128.40832031 37.35675781 -127.81664062 36.71351563 -127.20703125 36.05078125 C-118.27534556 26.58981048 -107.13654443 19.55179856 -96 13 C-95.175 12.48179687 -94.35 11.96359375 -93.5 11.4296875 C-66.54917519 -3.98281544 -29.83769741 -7.10013259 0 0 Z " fill="#3D6128" transform="translate(452,324)"/>
<path d="M0 0 C1.15580566 0.26611084 1.15580566 0.26611084 2.33496094 0.53759766 C28.65351116 6.83162823 50.80861059 21.39527639 70 40 C70.75023437 40.71027344 71.50046875 41.42054688 72.2734375 42.15234375 C77.67325363 47.37074313 82.32431937 53.13489184 87 59 C87.69351562 59.84949219 88.38703125 60.69898438 89.1015625 61.57421875 C91.09696987 64.02803051 93.05747543 66.50415025 95 69 C96.03447266 70.32257813 96.03447266 70.32257813 97.08984375 71.671875 C97.74082031 72.54328125 98.39179687 73.4146875 99.0625 74.3125 C99.65160156 75.09238281 100.24070312 75.87226563 100.84765625 76.67578125 C102.32892652 79.66342807 101.90784477 80.83315449 101 84 C99.72827148 86.15307617 99.72827148 86.15307617 98.12109375 88.29296875 C97.53360352 89.08292236 96.94611328 89.87287598 96.34082031 90.68676758 C95.71272461 91.51200928 95.08462891 92.33725098 94.4375 93.1875 C93.79780273 94.04174561 93.15810547 94.89599121 92.49902344 95.77612305 C88.74436088 100.76948136 84.90988898 105.68611232 80.94140625 110.51171875 C79.35617153 112.54349846 77.86963309 114.59092241 76.40234375 116.70703125 C75.95213867 117.35438232 75.50193359 118.0017334 75.03808594 118.66870117 C74.15326788 119.95034381 73.27724189 121.23811143 72.41113281 122.5324707 C71.34712678 124.07467928 70.18039638 125.54494656 69 127 C68.01 127 67.02 127 66 127 C64.046875 124.68359375 64.046875 124.68359375 61.75 121.4375 C51.33232418 107.27372185 37.73152742 94.06213689 22.38671875 85.38671875 C20 84 20 84 17.1875 82.02734375 C13.6593847 79.78335865 10.21956938 78.31024998 6.3125 76.875 C5.66861328 76.62363281 5.02472656 76.37226563 4.36132812 76.11328125 C-13.854255 69.3113724 -36.41884738 69.09141848 -54.20654297 77.11914062 C-58.58205651 79.26818131 -62.30629804 81.83674211 -66 85 C-66.84949219 85.70253906 -67.69898438 86.40507812 -68.57421875 87.12890625 C-77.30428653 94.63232774 -83.31238705 102.02877886 -87 113 C-87.66 113 -88.32 113 -89 113 C-89.31307386 114.70822826 -89.62543008 116.41658805 -89.9375 118.125 C-90.11152344 119.07632813 -90.28554688 120.02765625 -90.46484375 121.0078125 C-90.72974609 122.48894531 -90.72974609 122.48894531 -91 124 C-91.17917969 124.96292969 -91.35835938 125.92585937 -91.54296875 126.91796875 C-94.6342636 147.76439302 -88.32320836 165.63216331 -76.28515625 182.38671875 C-68.65558187 191.88171474 -58.34846113 198.01312707 -47 202 C-45.74123047 202.46019531 -45.74123047 202.46019531 -44.45703125 202.9296875 C-26.03931491 209.40828119 -6.90634305 206.33132508 10.390625 198.14355469 C13.64783175 196.52272136 16.83318187 194.79005662 20 193 C20.97324219 192.45601562 21.94648438 191.91203125 22.94921875 191.3515625 C39.53586138 181.423791 53.34870806 166.58837834 65.11328125 151.4296875 C67.35978051 148.53668017 69.67648495 145.70644625 72 142.875 C72.763125 141.94429687 73.52625 141.01359375 74.3125 140.0546875 C74.869375 139.37664062 75.42625 138.69859375 76 138 C76.58523438 138.7321875 77.17046875 139.464375 77.7734375 140.21875 C79.10937734 141.88750292 80.44727315 143.55469684 81.7890625 145.21875 C90.24252391 155.72262545 98.37075948 166.36930852 106.06542969 177.43969727 C106.54915039 178.13377686 107.03287109 178.82785645 107.53125 179.54296875 C107.95986328 180.16196045 108.38847656 180.78095215 108.83007812 181.41870117 C110.04855744 183.14714493 110.04855744 183.14714493 112 185 C111.44054687 185.64582031 110.88109375 186.29164063 110.3046875 186.95703125 C104.90839217 193.29897962 99.88516375 199.81825082 95 206.5625 C89.71753213 213.83435767 84.19404431 220.48054394 78 227 C76.84716152 228.32728115 75.70085933 229.66027994 74.5625 231 C61.10005972 246.33222366 45.70330683 258.61210702 27 267 C26.01 267 25.02 267 24 267 C24 267.66 24 268.32 24 269 C17.07407931 271.59392847 10.17001376 274.16558107 3 276 C1.39318359 276.42152344 1.39318359 276.42152344 -0.24609375 276.8515625 C-21.06121953 281.41086334 -45.60705294 281.21210024 -66 275 C-66.84949219 274.75330566 -67.69898438 274.50661133 -68.57421875 274.25244141 C-82.69939512 270.10202432 -96.01942312 264.72793157 -108 256 C-108 255.34 -108 254.68 -108 254 C-108.85464844 253.85111328 -108.85464844 253.85111328 -109.7265625 253.69921875 C-127.80196087 248.13994674 -144.31033773 221.82391954 -152.796875 206.1171875 C-153.14008789 205.46814453 -153.48330078 204.81910156 -153.83691406 204.15039062 C-154.68555846 202.58136044 -155.56723959 201.03006937 -156.46777344 199.49023438 C-160.33139406 192.77656006 -162.77543556 186.22641635 -164.75 178.75 C-165.19484741 177.09170166 -165.19484741 177.09170166 -165.64868164 175.39990234 C-175.05357156 139.44142497 -171.02693542 100.24994263 -152.34375 67.82421875 C-145.71044837 56.81416231 -137.90482995 47.23720307 -129 38 C-128.40832031 37.35675781 -127.81664062 36.71351563 -127.20703125 36.05078125 C-118.27534556 26.58981048 -107.13654443 19.55179856 -96 13 C-95.175 12.48179687 -94.35 11.96359375 -93.5 11.4296875 C-66.54917519 -3.98281544 -29.83769741 -7.10013259 0 0 Z " fill="#3772BB" transform="translate(452,324)"/>
<path d="M0 0 C0.98871094 0.45761719 1.97742188 0.91523438 2.99609375 1.38671875 C19.50944867 9.74646153 32.44705736 23.87594411 38.4375 41.5 C43.96095471 59.53172658 41.71543306 78.15695204 33.25 94.875 C23.91517637 110.5120142 10.86367005 120.57071284 -6 127 C-6.73500732 127.28029053 -7.47001465 127.56058105 -8.22729492 127.84936523 C-15.19787859 130.23250085 -21.74338071 130.41820652 -29.0625 130.3125 C-30.18205078 130.31572266 -31.30160156 130.31894531 -32.45507812 130.32226562 C-50.48313431 130.20595559 -65.54856495 123.29331765 -80 113 C-80.55429687 112.60796387 -81.10859375 112.21592773 -81.6796875 111.81201172 C-94.97184078 102.29922949 -105.48577773 90.8401627 -115.55859375 78.015625 C-118.18986439 74.73374362 -118.18986439 74.73374362 -122 73 C-122.27763184 73.58322021 -122.55526367 74.16644043 -122.84130859 74.76733398 C-123.94508053 76.89417646 -125.15272739 78.77120863 -126.5390625 80.72265625 C-127.03301514 81.42036133 -127.52696777 82.11806641 -128.03588867 82.83691406 C-128.56029541 83.57135742 -129.08470215 84.30580078 -129.625 85.0625 C-130.16552002 85.82401367 -130.70604004 86.58552734 -131.26293945 87.37011719 C-134.21111733 91.5164451 -137.18463415 95.64305014 -140.1875 99.75 C-141.10402344 101.01457031 -141.10402344 101.01457031 -142.0390625 102.3046875 C-143.0944348 103.75529883 -144.15239429 105.20412335 -145.22558594 106.64160156 C-146.51853644 108.37623719 -147.79140166 110.12431169 -149.0625 111.875 C-149.83722656 112.92429687 -150.61195313 113.97359375 -151.41015625 115.0546875 C-153.21063159 117.82148126 -153.21063159 117.82148126 -152.97265625 120.5859375 C-151.81879649 123.44973401 -150.36998431 125.39299151 -148.375 127.75 C-147.65828125 128.61367188 -146.9415625 129.47734375 -146.203125 130.3671875 C-145.47609375 131.23601562 -144.7490625 132.10484375 -144 133 C-142.69956087 134.61798821 -141.40724825 136.2425579 -140.125 137.875 C-139.29355469 138.92300781 -139.29355469 138.92300781 -138.4453125 139.9921875 C-137.05199018 141.9277758 -135.99834044 143.83854448 -135 146 C-153.66972248 150.67438655 -173.33027752 150.67438655 -192 146 C-189.24456056 141.00012988 -185.71126077 136.65585004 -182.1875 132.1875 C-178.1926098 127.10115634 -174.22738901 122.00075755 -170.3605957 116.81616211 C-168.4376838 114.24940423 -166.46777006 111.71996464 -164.5 109.1875 C-160.29382302 103.74656443 -156.19653037 98.22972256 -152.125 92.6875 C-92.7794862 11.92170128 -92.7794862 11.92170128 -55 -1.6875 C-53.2984375 -2.31205078 -53.2984375 -2.31205078 -51.5625 -2.94921875 C-35.47955752 -7.69298139 -15.15655393 -7.11813375 0 0 Z " fill="#FBFCFB" transform="translate(727,400)"/>
<path d="M0 0 C-3.552619 4.89685321 -7.29842759 9.54627036 -11.25 14.125 C-15.56498508 19.14912692 -19.49995752 24.34081698 -23.29760742 29.76367188 C-26.12425602 33.79582764 -29.04406751 37.73442054 -32.0625 41.625 C-32.48055908 42.16431152 -32.89861816 42.70362305 -33.3293457 43.25927734 C-33.74273193 43.79246582 -34.15611816 44.3256543 -34.58203125 44.875 C-39.60870735 51.37151193 -44.51183744 57.95900815 -49.359375 64.58984375 C-60.67515594 80.05781097 -60.67515594 80.05781097 -66.61328125 87.1484375 C-68.48749879 89.38768268 -70.33391793 91.64219902 -72.16796875 93.9140625 C-91.8204043 118.18782829 -111.7989834 138.69492339 -142 149 C-142.9796875 149.33902344 -143.959375 149.67804688 -144.96875 150.02734375 C-160.10190926 154.5381893 -178.6227584 153.14781978 -192.7890625 146.22265625 C-211.17284879 136.05635747 -224.79087907 121.8481745 -230.8347168 101.27270508 C-234.85306133 86.22888021 -233.0845328 72.73349331 -229 58 C-228.34 58 -227.68 58 -227 58 C-226.95875 57.195625 -226.9175 56.39125 -226.875 55.5625 C-223.67235784 42.52317119 -210.66406459 31.79264088 -199.9609375 24.63671875 C-197.69254148 23.26463651 -195.40544896 22.11551787 -193 21 C-192.00226563 20.53207031 -191.00453125 20.06414062 -189.9765625 19.58203125 C-174.70238112 13.4551967 -155.54025321 13.77830849 -140 19 C-138.79988281 19.37511719 -137.59976563 19.75023437 -136.36328125 20.13671875 C-130.56816955 22.05631166 -125.37615237 23.91908583 -120.609375 27.77734375 C-118.80658166 29.1469416 -116.96610364 30.05930367 -114.9375 31.0625 C-99.98492191 39.23455198 -82.87468116 55.53116184 -74 70 C-74 70.66 -74 71.32 -74 72 C-73.01 72 -72.02 72 -71 72 C-70.73832031 71.26265625 -70.47664062 70.5253125 -70.20703125 69.765625 C-68.97980328 66.95372401 -67.65372446 65.0909439 -65.6875 62.75 C-60.70924918 56.68558536 -55.95544896 50.46228503 -51.21484375 44.2109375 C-49.22021187 41.58275866 -47.19820547 38.98379947 -45.12890625 36.4140625 C-44.48876587 35.60461182 -44.48876587 35.60461182 -43.83569336 34.77880859 C-42.70445337 33.35033011 -41.5597448 31.93254657 -40.4140625 30.515625 C-38.80803601 28.13248103 -38.80803601 28.13248103 -38.98046875 25.6015625 C-40.36847246 22.05975993 -42.43447153 19.15462509 -44.6875 16.125 C-45.13722168 15.50657227 -45.58694336 14.88814453 -46.05029297 14.25097656 C-48.45703148 10.97228144 -50.93688997 7.80554953 -53.625 4.75 C-56 2 -56 2 -56 0 C-38.35935037 -3.20005687 -17.52554164 -4.14105625 0 0 Z " fill="#FBFCFB" transform="translate(592,379)"/>
<path d="M0 0 C0.495 0.99 0.495 0.99 1 2 C0.67 2.66 0.34 3.32 0 4 C0.99 3.67 1.98 3.34 3 3 C5.4846363 3.6910113 7.78905654 4.45311618 10.1875 5.375 C10.88713867 5.64030518 11.58677734 5.90561035 12.30761719 6.17895508 C21.40346459 9.77000862 31.6045196 14.51961692 39 21 C39 21.66 39 22.32 39 23 C39.598125 23.28875 40.19625 23.5775 40.8125 23.875 C43 25 43 25 46 27 C46 27.66 46 28.32 46 29 C46.556875 29.2475 47.11375 29.495 47.6875 29.75 C50.39861227 31.21546609 52.61623338 33.05503619 55 35 C54.35675781 35.43828125 53.71351563 35.8765625 53.05078125 36.328125 C37.08740778 47.5320904 23.91565019 61.63886059 12 77 C10.96275414 78.31941509 9.92494514 79.63838758 8.88671875 80.95703125 C2.17704289 89.50397088 -4.37186696 98.15170272 -10.78808594 106.92089844 C-16.73722802 115.04071899 -22.85502399 123.02786335 -29 131 C-32.35085686 129.88304771 -32.73571333 129.33942898 -34.63671875 126.53515625 C-35.12736816 125.82262695 -35.61801758 125.11009766 -36.12353516 124.37597656 C-36.63964355 123.6125293 -37.15575195 122.84908203 -37.6875 122.0625 C-41.61335636 116.37466368 -45.59738919 110.82986191 -49.984375 105.484375 C-52.96216595 101.81407453 -55.8163104 98.05056876 -58.67626953 94.28808594 C-60.36750975 92.07318964 -62.02678552 89.97321448 -64 88 C-63.8019493 82.82134094 -61.90204373 80.07268528 -58.6875 76.125 C-57.77090891 74.97884436 -56.85560017 73.83166233 -55.94140625 72.68359375 C-55.21848389 71.78423096 -55.21848389 71.78423096 -54.48095703 70.86669922 C-51.96150482 67.69100986 -49.5470121 64.43773003 -47.125 61.1875 C-46.10693396 59.82670086 -45.08870343 58.46602477 -44.0703125 57.10546875 C-43.56274414 56.42661621 -43.05517578 55.74776367 -42.53222656 55.04833984 C-39.52840567 51.03271567 -36.5181627 47.02189975 -33.50708008 43.01171875 C-30.96219468 39.62130816 -28.42322109 36.22672991 -25.89453125 32.82421875 C-20.77316995 25.94350021 -15.59342234 19.15299877 -10.11328125 12.55078125 C-6.68520558 8.41301154 -3.34658394 4.20374713 0 0 Z " fill="#47693B" transform="translate(593,377)"/>
<path d="M0 0 C1.65625 2.23046875 1.65625 2.23046875 3.5 5.1875 C4.1084375 6.15042969 4.716875 7.11335938 5.34375 8.10546875 C6.83091295 10.70449646 7.93338066 13.21109055 9 16 C9.63412302 17.19379435 10.27968156 18.38159702 10.9375 19.5625 C15.72542609 29.16545586 16.53027773 39.23438955 16.4375 49.8125 C16.42847656 51.04500488 16.41945313 52.27750977 16.41015625 53.54736328 C16.06500273 71.70387678 9.98132578 84.18396955 0 99 C-14.88511486 90.98493815 -27.8751458 76.25011949 -37.6328125 62.57421875 C-39.01591922 60.71196641 -39.01591922 60.71196641 -42 60 C-42.27763184 60.58322021 -42.55526367 61.16644043 -42.84130859 61.76733398 C-43.94508053 63.89417646 -45.15272739 65.77120863 -46.5390625 67.72265625 C-47.03301514 68.42036133 -47.52696777 69.11806641 -48.03588867 69.83691406 C-48.56029541 70.57135742 -49.08470215 71.30580078 -49.625 72.0625 C-50.16552002 72.82401367 -50.70604004 73.58552734 -51.26293945 74.37011719 C-54.21111733 78.5164451 -57.18463415 82.64305014 -60.1875 86.75 C-61.10402344 88.01457031 -61.10402344 88.01457031 -62.0390625 89.3046875 C-63.0944348 90.75529883 -64.15239429 92.20412335 -65.22558594 93.64160156 C-66.51853644 95.37623719 -67.79140166 97.12431169 -69.0625 98.875 C-69.83722656 99.92429687 -70.61195313 100.97359375 -71.41015625 102.0546875 C-73.21063159 104.82148126 -73.21063159 104.82148126 -72.97265625 107.5859375 C-71.81879649 110.44973401 -70.36998431 112.39299151 -68.375 114.75 C-67.65828125 115.61367188 -66.9415625 116.47734375 -66.203125 117.3671875 C-65.47609375 118.23601562 -64.7490625 119.10484375 -64 120 C-62.69956087 121.61798821 -61.40724825 123.2425579 -60.125 124.875 C-59.29355469 125.92300781 -59.29355469 125.92300781 -58.4453125 126.9921875 C-57.05199018 128.9277758 -55.99834044 130.83854448 -55 133 C-73.66972248 137.67438655 -93.33027752 137.67438655 -112 133 C-109.24456056 128.00012988 -105.71126077 123.65585004 -102.1875 119.1875 C-98.1926098 114.10115634 -94.22738901 109.00075755 -90.3605957 103.81616211 C-88.4376838 101.24940423 -86.46777006 98.71996464 -84.5 96.1875 C-80.29382302 90.74656443 -76.19653037 85.22972256 -72.125 79.6875 C-13.57180415 0 -13.57180415 0 0 0 Z " fill="#B8CDB6" transform="translate(647,413)"/>
<path d="M0 0 C-3.552619 4.89685321 -7.29842759 9.54627036 -11.25 14.125 C-15.56498508 19.14912692 -19.49995752 24.34081698 -23.29760742 29.76367188 C-26.12425602 33.79582764 -29.04406751 37.73442054 -32.0625 41.625 C-32.48055908 42.16431152 -32.89861816 42.70362305 -33.3293457 43.25927734 C-33.74273193 43.79246582 -34.15611816 44.3256543 -34.58203125 44.875 C-39.60870735 51.37151193 -44.51183744 57.95900815 -49.359375 64.58984375 C-60.67515594 80.05781097 -60.67515594 80.05781097 -66.61328125 87.1484375 C-68.48749879 89.38768268 -70.33391793 91.64219902 -72.16796875 93.9140625 C-83.5775563 108.0066494 -95.31758932 122.16834427 -110 133 C-110.66 133 -111.32 133 -112 133 C-113.33203125 131.09375 -113.33203125 131.09375 -114.8125 128.5 C-116.66449561 125.27481739 -118.56370165 122.17554671 -120.6875 119.125 C-123.82218198 114.16175354 -124.77397764 108.66946757 -126 103 C-126.34933594 101.7934375 -126.69867188 100.586875 -127.05859375 99.34375 C-128.37313054 94.09804523 -128.38184511 88.88368194 -128.375 83.5 C-128.37628906 82.45005859 -128.37757813 81.40011719 -128.37890625 80.31835938 C-128.25915732 71.41883648 -126.77574313 63.42636306 -124 55 C-123.34 55 -122.68 55 -122 55 C-121.505 52.03 -121.505 52.03 -121 49 C-120.34 49 -119.68 49 -119 49 C-118.84144531 48.41992188 -118.68289063 47.83984375 -118.51953125 47.2421875 C-116.87148313 41.72441313 -114.96418234 38.17846247 -111 34 C-106.04041674 37.08545502 -101.91320588 40.66778106 -97.6875 44.6875 C-97.02814453 45.31035889 -96.36878906 45.93321777 -95.68945312 46.57495117 C-93.78730304 48.37746705 -91.89248542 50.18734647 -90 52 C-89.09894531 52.85851562 -88.19789063 53.71703125 -87.26953125 54.6015625 C-82.40268089 59.34276268 -77.74467629 64.30472062 -74 70 C-74 70.66 -74 71.32 -74 72 C-73.01 72 -72.02 72 -71 72 C-70.73832031 71.26265625 -70.47664062 70.5253125 -70.20703125 69.765625 C-68.97980328 66.95372401 -67.65372446 65.0909439 -65.6875 62.75 C-60.70924918 56.68558536 -55.95544896 50.46228503 -51.21484375 44.2109375 C-49.22021187 41.58275866 -47.19820547 38.98379947 -45.12890625 36.4140625 C-44.48876587 35.60461182 -44.48876587 35.60461182 -43.83569336 34.77880859 C-42.70445337 33.35033011 -41.5597448 31.93254657 -40.4140625 30.515625 C-38.80803601 28.13248103 -38.80803601 28.13248103 -38.98046875 25.6015625 C-40.36847246 22.05975993 -42.43447153 19.15462509 -44.6875 16.125 C-45.36208252 15.1973584 -45.36208252 15.1973584 -46.05029297 14.25097656 C-48.45703148 10.97228144 -50.93688997 7.80554953 -53.625 4.75 C-56 2 -56 2 -56 0 C-38.35935037 -3.20005687 -17.52554164 -4.14105625 0 0 Z " fill="#BFD3EA" transform="translate(592,379)"/>
<path d="M0 0 C0.76441406 0.57105469 1.52882813 1.14210938 2.31640625 1.73046875 C2.94675781 2.16746094 3.57710937 2.60445313 4.2265625 3.0546875 C14.14563076 10.57871878 21.26472978 23.58099999 23.31640625 35.73046875 C23.60009856 38.98640465 23.6508478 42.21337143 23.62890625 45.48046875 C23.6232666 46.36081787 23.61762695 47.24116699 23.61181641 48.14819336 C23.36179525 61.61591736 19.44963086 73.54341053 10.31640625 83.73046875 C8.4609375 83.71484375 8.4609375 83.71484375 6.31640625 82.73046875 C5.34990671 80.10841954 4.6443198 77.68289226 4.00390625 74.98046875 C-2.54440296 50.38110945 -20.49697353 30.78613274 -41.68359375 17.41796875 C-49.33837501 13.05461732 -57.57653652 9.6171009 -65.99609375 7.04296875 C-67.82140625 6.39328125 -67.82140625 6.39328125 -69.68359375 5.73046875 C-70.01359375 4.74046875 -70.34359375 3.75046875 -70.68359375 2.73046875 C-54.09988971 -17.40688615 -19.24348798 -13.45036641 0 0 Z " fill="#3672BC" transform="translate(730.68359375,417.26953125)"/>
<path d="M0 0 C0.78117187 0.04253906 1.56234375 0.08507812 2.3671875 0.12890625 C2.53734375 0.69174316 2.7075 1.25458008 2.8828125 1.83447266 C7.76008333 17.74721731 13.42282364 31.34103547 24.3671875 44.12890625 C25.04394531 44.9384375 25.72070312 45.74796875 26.41796875 46.58203125 C40.69319694 63.11391185 57.04907615 71.59712869 77.3671875 78.12890625 C76.6484375 82.86328125 76.6484375 82.86328125 74.1171875 85.25390625 C61.80546457 93.6482628 45.92725278 96.46338373 31.23925781 93.73339844 C14.5928986 89.89666253 0.75611671 80.07969217 -8.390625 65.55859375 C-10.30175675 61.82046813 -11.5633219 57.93826981 -12.7734375 53.92578125 C-13.55958791 51.1536101 -13.55958791 51.1536101 -14.72265625 48.734375 C-18.07231221 39.14544571 -15.72547101 25.54687866 -12.6328125 16.12890625 C-11.1171875 13.953125 -11.1171875 13.953125 -9.6328125 12.12890625 C-9.1584375 10.99453125 -8.6840625 9.86015625 -8.1953125 8.69140625 C-4.47948608 0.21932202 -4.47948608 0.21932202 0 0 Z " fill="#3E622A" transform="translate(387.6328125,423.87109375)"/>
<path d="M0 0 C0.87785156 1.09828125 0.87785156 1.09828125 1.7734375 2.21875 C3.10937734 3.88750292 4.44727315 5.55469684 5.7890625 7.21875 C14.24252391 17.72262545 22.37075948 28.36930852 30.06542969 39.43969727 C30.54915039 40.13377686 31.03287109 40.82785645 31.53125 41.54296875 C31.95986328 42.16196045 32.38847656 42.78095215 32.83007812 43.41870117 C34.04855744 45.14714493 34.04855744 45.14714493 36 47 C35.44054687 47.64582031 34.88109375 48.29164063 34.3046875 48.95703125 C28.21539119 56.11342289 22.57548756 63.51984138 17.08740234 71.14770508 C13.31666454 76.35245435 9.31701849 81.23830658 5 86 C4.67 85.01 4.34 84.02 4 83 C2.02179902 82.27118911 0.01345199 81.62486441 -2 81 C-5.70946105 79.42435118 -9.35278673 77.71399093 -13 76 C-14.26070312 75.42765625 -14.26070312 75.42765625 -15.546875 74.84375 C-28.0668987 68.94259233 -38.33815228 59.77189154 -48 50 C-47.48953125 49.62230469 -46.9790625 49.24460937 -46.453125 48.85546875 C-32.98876047 38.66170341 -21.45917993 26.83943746 -11.02734375 13.5703125 C-7.417462 8.99362234 -3.69942162 4.50438836 0 0 Z " fill="#487BB7" transform="translate(528,462)"/>
<path d="M0 0 C2.83201539 0.33984185 3.87886589 0.87177017 5.8671875 2.9765625 C6.52976562 3.85054688 7.19234375 4.72453125 7.875 5.625 C17.5983636 17.93163347 28.53949331 30.71661127 42 39 C40.515 39.495 40.515 39.495 39 40 C38.31622263 41.32463985 37.65229204 42.6595757 37 44 C27.42838481 54.57694896 13.85340058 63.01722973 0.59375 68.0078125 C-1.89911676 68.96140912 -4.20168195 70.07221516 -6.5625 71.3125 C-10 73 -10 73 -13 73 C-14.69140625 71.26953125 -14.69140625 71.26953125 -16.5625 68.8125 C-17.25601563 67.90757812 -17.94953125 67.00265625 -18.6640625 66.0703125 C-19.43492187 65.05710937 -20.20578125 64.04390625 -21 63 C-21.90099948 61.87028018 -22.80472895 60.74273315 -23.7109375 59.6171875 C-24.62011119 58.47421243 -25.5289697 57.33098656 -26.4375 56.1875 C-26.87457275 55.64907471 -27.31164551 55.11064941 -27.76196289 54.5559082 C-30.25018873 51.37954395 -31.64796487 49.02778594 -32 45 C-31.07885742 42.89453125 -31.07885742 42.89453125 -29.60546875 40.8125 C-28.79770996 39.65065186 -28.79770996 39.65065186 -27.97363281 38.46533203 C-27.08949707 37.24499268 -27.08949707 37.24499268 -26.1875 36 C-25.29369629 34.7313208 -25.29369629 34.7313208 -24.38183594 33.43701172 C-20.19449928 27.53504256 -15.83506953 21.78090005 -11.3671875 16.08984375 C-7.36926203 10.87142948 -3.68691324 5.44131398 0 0 Z " fill="#4F703A" transform="translate(605,473)"/>
<path d="M0 0 C7.05080953 6.88771251 13.29192037 14.54522105 19.1875 22.4375 C19.75855469 23.19933594 20.32960938 23.96117187 20.91796875 24.74609375 C22.3248574 27.67668853 21.88015078 28.90653733 21 32 C19.72827148 34.15307617 19.72827148 34.15307617 18.12109375 36.29296875 C17.53360352 37.08292236 16.94611328 37.87287598 16.34082031 38.68676758 C15.71272461 39.51200928 15.08462891 40.33725098 14.4375 41.1875 C13.79780273 42.04174561 13.15810547 42.89599121 12.49902344 43.77612305 C8.74436088 48.76948136 4.90988898 53.68611232 0.94140625 58.51171875 C-0.64382847 60.54349846 -2.13036691 62.59092241 -3.59765625 64.70703125 C-4.04786133 65.35438232 -4.49806641 66.0017334 -4.96191406 66.66870117 C-5.84673212 67.95034381 -6.72275811 69.23811143 -7.58886719 70.5324707 C-8.65287322 72.07467928 -9.81960362 73.54494656 -11 75 C-11.99 75 -12.98 75 -14 75 C-15.953125 72.68359375 -15.953125 72.68359375 -18.25 69.4375 C-26.56612648 58.1309694 -36.78886295 48.36507079 -47.828125 39.734375 C-49.69115118 38.24663467 -51.35974473 36.72546334 -53 35 C-51.68 35.33 -50.36 35.66 -49 36 C-48.76925781 35.43796875 -48.53851563 34.8759375 -48.30078125 34.296875 C-41.59406983 22.45439358 -26.26148698 15.54652592 -14.625 9.625 C-13.97120361 9.29097168 -13.31740723 8.95694336 -12.64379883 8.61279297 C-8.50085101 6.56268534 -4.47947897 5.14591323 0 4 C0 2.68 0 1.36 0 0 Z " fill="#487BB9" transform="translate(532,376)"/>
<path d="M0 0 C0.33 0.99 0.66 1.98 1 3 C-1.64 5.64 -4.28 8.28 -7 11 C-7.66 10.67 -8.32 10.34 -9 10 C-7.8758824 8.70756532 -6.75067408 7.41607925 -5.625 6.125 C-4.99851562 5.40570313 -4.37203125 4.68640625 -3.7265625 3.9453125 C-2.52573166 2.5923402 -1.2791655 1.2791655 0 0 Z " fill="#5B7A52" transform="translate(608,361)"/>
<path d="M0 0 C0.33 0.99 0.66 1.98 1 3 C-0.43359375 5.04296875 -0.43359375 5.04296875 -2.4375 7.1875 C-3.09621094 7.90292969 -3.75492188 8.61835938 -4.43359375 9.35546875 C-4.95050781 9.89816406 -5.46742188 10.44085938 -6 11 C-6.66 10.67 -7.32 10.34 -8 10 C-5.36 6.7 -2.72 3.4 0 0 Z " fill="#5E7F58" transform="translate(577,397)"/>
</svg>
