<svg width="32" height="32" viewBox="0 0 32 32" fill="none" xmlns="http://www.w3.org/2000/svg">
  <!-- Background circle - sidebar color -->
  <circle cx="16" cy="16" r="16" fill="#28363F"/>
  
  <!-- Organic teal/green shapes (like sidebar bottom pattern) -->
  <ellipse cx="20" cy="18" rx="8" ry="6" fill="#4ECDC4" opacity="0.6" transform="rotate(-20 20 18)"/>
  <ellipse cx="12" cy="20" rx="6" ry="8" fill="#4ECDC4" opacity="0.5" transform="rotate(30 12 20)"/>
  
  <!-- Yellow organic shapes (mustard yellow like sidebar) -->
  <ellipse cx="18" cy="14" rx="7" ry="5" fill="#FDB515" opacity="0.7" transform="rotate(25 18 14)"/>
  <path d="M10,16 Q12,12 14,14 Q16,16 15,19 Q14,22 12,20 Q10,18 10,16 Z" fill="#FDB515" opacity="0.6"/>
  
  <!-- Additional smaller organic shapes -->
  <ellipse cx="22" cy="22" rx="5" ry="4" fill="#4ECDC4" opacity="0.4" transform="rotate(45 22 22)"/>
  <ellipse cx="14" cy="12" rx="4" ry="5" fill="#FDB515" opacity="0.5" transform="rotate(-30 14 12)"/>
  
  <!-- Gold outline accents -->
  <path d="M16,10 Q18,12 20,14" stroke="#FDB515" stroke-width="1.2" fill="none" opacity="0.6" stroke-linecap="round"/>
  <path d="M12,22 Q14,20 16,22" stroke="#4ECDC4" stroke-width="1" fill="none" opacity="0.5" stroke-linecap="round"/>
</svg>
